<svg width="318" height="271" viewBox="0 0 318 271" fill="none" xmlns="http://www.w3.org/2000/svg">
<g filter="url(#filter0_d_2301_650)">
<rect width="252" height="205" rx="20" transform="matrix(-1 0 0 1 281 29)" fill="white"/>
</g>
<path d="M186.01 87.4851L183.602 85.0776L182.132 83.6001C181.51 82.9776 180.497 82.9776 179.875 83.6001L175.99 87.4851C175.48 87.9951 175.847 88.8651 176.56 88.8651H180.767H185.44C186.16 88.8651 186.52 87.9951 186.01 87.4851Z" fill="#1ECB4F"/>
<path d="M208.568 86.618H205.74V89.516H204.256V86.618H201.428V85.274H204.256V82.376H205.74V85.274H208.568V86.618ZM210.834 85.764C210.834 84.1493 211.105 82.8893 211.646 81.984C212.197 81.0693 213.139 80.612 214.474 80.612C215.809 80.612 216.747 81.0693 217.288 81.984C217.839 82.8893 218.114 84.1493 218.114 85.764C218.114 87.3973 217.839 88.676 217.288 89.6C216.747 90.5147 215.809 90.972 214.474 90.972C213.139 90.972 212.197 90.5147 211.646 89.6C211.105 88.676 210.834 87.3973 210.834 85.764ZM216.546 85.764C216.546 85.008 216.495 84.3687 216.392 83.846C216.299 83.3233 216.103 82.8987 215.804 82.572C215.505 82.236 215.062 82.068 214.474 82.068C213.886 82.068 213.443 82.236 213.144 82.572C212.845 82.8987 212.645 83.3233 212.542 83.846C212.449 84.3687 212.402 85.008 212.402 85.764C212.402 86.548 212.449 87.206 212.542 87.738C212.635 88.27 212.831 88.6993 213.13 89.026C213.438 89.3527 213.886 89.516 214.474 89.516C215.062 89.516 215.505 89.3527 215.804 89.026C216.112 88.6993 216.313 88.27 216.406 87.738C216.499 87.206 216.546 86.548 216.546 85.764ZM220.657 91.098C220.368 91.098 220.125 91 219.929 90.804C219.733 90.608 219.635 90.3653 219.635 90.076C219.635 89.7867 219.733 89.544 219.929 89.348C220.125 89.152 220.368 89.054 220.657 89.054C220.937 89.054 221.175 89.152 221.371 89.348C221.567 89.544 221.665 89.7867 221.665 90.076C221.665 90.3653 221.567 90.608 221.371 90.804C221.175 91 220.937 91.098 220.657 91.098ZM224.062 88.83C224.958 88.0553 225.663 87.4207 226.176 86.926C226.699 86.422 227.133 85.8993 227.478 85.358C227.823 84.8167 227.996 84.2753 227.996 83.734C227.996 83.174 227.861 82.7353 227.59 82.418C227.329 82.1007 226.913 81.942 226.344 81.942C225.793 81.942 225.364 82.1193 225.056 82.474C224.757 82.8193 224.599 83.286 224.58 83.874H223.04C223.068 82.81 223.385 81.998 223.992 81.438C224.608 80.8687 225.387 80.584 226.33 80.584C227.347 80.584 228.141 80.864 228.71 81.424C229.289 81.984 229.578 82.7307 229.578 83.664C229.578 84.336 229.405 84.9847 229.06 85.61C228.724 86.226 228.318 86.7813 227.842 87.276C227.375 87.7613 226.778 88.326 226.05 88.97L225.42 89.53H229.858V90.86H223.054V89.698L224.062 88.83ZM237.84 82.166H233.15V84.952C233.346 84.6907 233.635 84.4713 234.018 84.294C234.41 84.1167 234.825 84.028 235.264 84.028C236.048 84.028 236.683 84.196 237.168 84.532C237.663 84.868 238.013 85.2927 238.218 85.806C238.433 86.3193 238.54 86.8607 238.54 87.43C238.54 88.1207 238.405 88.7367 238.134 89.278C237.873 89.81 237.476 90.23 236.944 90.538C236.421 90.846 235.777 91 235.012 91C233.995 91 233.178 90.748 232.562 90.244C231.946 89.74 231.577 89.0727 231.456 88.242H233.01C233.113 88.6807 233.341 89.0307 233.696 89.292C234.051 89.544 234.494 89.67 235.026 89.67C235.689 89.67 236.183 89.4693 236.51 89.068C236.846 88.6667 237.014 88.1347 237.014 87.472C237.014 86.8 236.846 86.2867 236.51 85.932C236.174 85.568 235.679 85.386 235.026 85.386C234.569 85.386 234.181 85.5027 233.864 85.736C233.556 85.96 233.332 86.268 233.192 86.66H231.68V80.766H237.84V82.166ZM239.949 83.258C239.949 82.5767 240.145 82.0447 240.537 81.662C240.939 81.27 241.452 81.074 242.077 81.074C242.703 81.074 243.211 81.27 243.603 81.662C244.005 82.0447 244.205 82.5767 244.205 83.258C244.205 83.9393 244.005 84.476 243.603 84.868C243.211 85.26 242.703 85.456 242.077 85.456C241.452 85.456 240.939 85.26 240.537 84.868C240.145 84.476 239.949 83.9393 239.949 83.258ZM248.489 81.256L242.903 91H241.335L246.921 81.256H248.489ZM242.077 82.04C241.489 82.04 241.195 82.446 241.195 83.258C241.195 84.0793 241.489 84.49 242.077 84.49C242.357 84.49 242.572 84.392 242.721 84.196C242.88 83.9907 242.959 83.678 242.959 83.258C242.959 82.446 242.665 82.04 242.077 82.04ZM245.647 88.984C245.647 88.3027 245.843 87.7707 246.235 87.388C246.637 86.996 247.15 86.8 247.775 86.8C248.391 86.8 248.895 86.996 249.287 87.388C249.689 87.7707 249.889 88.3027 249.889 88.984C249.889 89.6653 249.689 90.202 249.287 90.594C248.895 90.986 248.391 91.182 247.775 91.182C247.15 91.182 246.637 90.986 246.235 90.594C245.843 90.202 245.647 89.6653 245.647 88.984ZM247.761 87.766C247.173 87.766 246.879 88.172 246.879 88.984C246.879 89.796 247.173 90.202 247.761 90.202C248.349 90.202 248.643 89.796 248.643 88.984C248.643 88.172 248.349 87.766 247.761 87.766Z" fill="#1ECB4F"/>
<path d="M74.876 162.372C74.876 163.343 74.624 164.257 74.12 165.116C73.6347 165.956 72.9067 166.656 71.936 167.216C70.984 167.757 69.8547 168.075 68.548 168.168V170.436H66.756V168.14C64.8893 167.972 63.3867 167.412 62.248 166.46C61.1093 165.489 60.5213 164.183 60.484 162.54H64.684C64.796 163.884 65.4867 164.696 66.756 164.976V159.628C65.412 159.292 64.3293 158.956 63.508 158.62C62.6867 158.284 61.9773 157.743 61.38 156.996C60.7827 156.249 60.484 155.232 60.484 153.944C60.484 152.32 61.0627 150.995 62.22 149.968C63.396 148.941 64.908 148.353 66.756 148.204V145.936H68.548V148.204C70.34 148.353 71.768 148.895 72.832 149.828C73.9147 150.761 74.5213 152.049 74.652 153.692H70.424C70.368 153.151 70.172 152.684 69.836 152.292C69.5187 151.881 69.0893 151.592 68.548 151.424V156.716C69.948 157.071 71.0493 157.416 71.852 157.752C72.6733 158.069 73.3827 158.601 73.98 159.348C74.5773 160.076 74.876 161.084 74.876 162.372ZM64.572 153.748C64.572 154.364 64.7587 154.868 65.132 155.26C65.5053 155.633 66.0467 155.941 66.756 156.184V151.34C66.084 151.433 65.552 151.685 65.16 152.096C64.768 152.507 64.572 153.057 64.572 153.748ZM68.548 165.032C69.2573 164.901 69.808 164.612 70.2 164.164C70.6107 163.716 70.816 163.175 70.816 162.54C70.816 161.924 70.62 161.429 70.228 161.056C69.836 160.683 69.276 160.375 68.548 160.132V165.032ZM82.2203 157.192C80.3536 156.221 79.4203 154.719 79.4203 152.684C79.4203 151.676 79.6723 150.761 80.1763 149.94C80.699 149.1 81.4736 148.437 82.5003 147.952C83.5456 147.448 84.815 147.196 86.3083 147.196C87.8016 147.196 89.0616 147.448 90.0883 147.952C91.1336 148.437 91.9083 149.1 92.4123 149.94C92.935 150.761 93.1963 151.676 93.1963 152.684C93.1963 153.711 92.9443 154.616 92.4403 155.4C91.9363 156.165 91.2643 156.763 90.4243 157.192C91.451 157.64 92.2536 158.293 92.8323 159.152C93.411 160.011 93.7003 161.028 93.7003 162.204C93.7003 163.473 93.3736 164.584 92.7203 165.536C92.0856 166.469 91.2083 167.188 90.0883 167.692C88.9683 168.196 87.7083 168.448 86.3083 168.448C84.9083 168.448 83.6483 168.196 82.5283 167.692C81.427 167.188 80.5496 166.469 79.8963 165.536C79.2616 164.584 78.9443 163.473 78.9443 162.204C78.9443 161.028 79.2336 160.011 79.8123 159.152C80.391 158.275 81.1936 157.621 82.2203 157.192ZM89.3883 153.244C89.3883 152.329 89.1083 151.62 88.5483 151.116C88.007 150.612 87.2603 150.36 86.3083 150.36C85.375 150.36 84.6283 150.612 84.0683 151.116C83.527 151.62 83.2563 152.339 83.2563 153.272C83.2563 154.112 83.5363 154.784 84.0963 155.288C84.675 155.792 85.4123 156.044 86.3083 156.044C87.2043 156.044 87.9416 155.792 88.5203 155.288C89.099 154.765 89.3883 154.084 89.3883 153.244ZM86.3083 158.9C85.2443 158.9 84.3763 159.171 83.7043 159.712C83.051 160.253 82.7243 161.028 82.7243 162.036C82.7243 162.969 83.0416 163.735 83.6763 164.332C84.3296 164.911 85.207 165.2 86.3083 165.2C87.4096 165.2 88.2776 164.901 88.9123 164.304C89.547 163.707 89.8643 162.951 89.8643 162.036C89.8643 161.047 89.5376 160.281 88.8843 159.74C88.231 159.18 87.3723 158.9 86.3083 158.9ZM101.529 163.884L98.2525 171.752H95.7325L97.5525 163.884H101.529ZM105.138 163.576C106.93 162.083 108.358 160.841 109.422 159.852C110.486 158.844 111.373 157.799 112.082 156.716C112.791 155.633 113.146 154.569 113.146 153.524C113.146 152.572 112.922 151.825 112.474 151.284C112.026 150.743 111.335 150.472 110.402 150.472C109.469 150.472 108.75 150.789 108.246 151.424C107.742 152.04 107.481 152.889 107.462 153.972H103.654C103.729 151.732 104.391 150.033 105.642 148.876C106.911 147.719 108.517 147.14 110.458 147.14C112.586 147.14 114.219 147.709 115.358 148.848C116.497 149.968 117.066 151.452 117.066 153.3C117.066 154.756 116.674 156.147 115.89 157.472C115.106 158.797 114.21 159.955 113.202 160.944C112.194 161.915 110.878 163.091 109.254 164.472H117.514V167.72H103.682V164.808L105.138 163.576ZM124.52 162.26C124.669 163.081 125.005 163.716 125.528 164.164C126.069 164.593 126.788 164.808 127.684 164.808C128.841 164.808 129.681 164.332 130.204 163.38C130.727 162.409 130.988 160.785 130.988 158.508C130.559 159.105 129.952 159.572 129.168 159.908C128.403 160.244 127.572 160.412 126.676 160.412C125.481 160.412 124.399 160.169 123.428 159.684C122.476 159.18 121.72 158.443 121.16 157.472C120.6 156.483 120.32 155.288 120.32 153.888C120.32 151.816 120.936 150.173 122.168 148.96C123.4 147.728 125.08 147.112 127.208 147.112C129.859 147.112 131.725 147.961 132.808 149.66C133.909 151.359 134.46 153.916 134.46 157.332C134.46 159.759 134.245 161.747 133.816 163.296C133.405 164.845 132.687 166.021 131.66 166.824C130.652 167.627 129.271 168.028 127.516 168.028C126.135 168.028 124.959 167.767 123.988 167.244C123.017 166.703 122.271 166.003 121.748 165.144C121.244 164.267 120.955 163.305 120.88 162.26H124.52ZM127.488 157.22C128.459 157.22 129.224 156.921 129.784 156.324C130.344 155.727 130.624 154.924 130.624 153.916C130.624 152.815 130.325 151.965 129.728 151.368C129.149 150.752 128.356 150.444 127.348 150.444C126.34 150.444 125.537 150.761 124.94 151.396C124.361 152.012 124.072 152.833 124.072 153.86C124.072 154.849 124.352 155.661 124.912 156.296C125.491 156.912 126.349 157.22 127.488 157.22ZM137.035 151.2V147.588H143.783V168H139.751V151.2H137.035Z" fill="#1A1A1A"/>
<path d="M61.352 197.964H64.768V199H60.078V189.242H61.352V197.964ZM66.779 190.082C66.5363 190.082 66.331 189.998 66.163 189.83C65.995 189.662 65.911 189.457 65.911 189.214C65.911 188.971 65.995 188.766 66.163 188.598C66.331 188.43 66.5363 188.346 66.779 188.346C67.0123 188.346 67.2083 188.43 67.367 188.598C67.535 188.766 67.619 188.971 67.619 189.214C67.619 189.457 67.535 189.662 67.367 189.83C67.2083 189.998 67.0123 190.082 66.779 190.082ZM67.395 191.328V199H66.121V191.328H67.395ZM71.1203 192.378V196.9C71.1203 197.273 71.1996 197.539 71.3583 197.698C71.5169 197.847 71.7923 197.922 72.1843 197.922H73.1223V199H71.9743C71.2649 199 70.7329 198.837 70.3783 198.51C70.0236 198.183 69.8463 197.647 69.8463 196.9V192.378H68.8523V191.328H69.8463V189.396H71.1203V191.328H73.1223V192.378H71.1203ZM81.6659 194.87C81.6659 195.113 81.6519 195.369 81.6239 195.64H75.4919C75.5386 196.396 75.7952 196.989 76.2619 197.418C76.7379 197.838 77.3119 198.048 77.9839 198.048C78.5346 198.048 78.9919 197.922 79.3559 197.67C79.7292 197.409 79.9906 197.063 80.1399 196.634H81.5119C81.3066 197.371 80.8959 197.973 80.2799 198.44C79.6639 198.897 78.8986 199.126 77.9839 199.126C77.2559 199.126 76.6026 198.963 76.0239 198.636C75.4546 198.309 75.0066 197.847 74.6799 197.25C74.3532 196.643 74.1899 195.943 74.1899 195.15C74.1899 194.357 74.3486 193.661 74.6659 193.064C74.9832 192.467 75.4266 192.009 75.9959 191.692C76.5746 191.365 77.2372 191.202 77.9839 191.202C78.7119 191.202 79.3559 191.361 79.9159 191.678C80.4759 191.995 80.9052 192.434 81.2039 192.994C81.5119 193.545 81.6659 194.17 81.6659 194.87ZM80.3499 194.604C80.3499 194.119 80.2426 193.703 80.0279 193.358C79.8132 193.003 79.5192 192.737 79.1459 192.56C78.7819 192.373 78.3759 192.28 77.9279 192.28C77.2839 192.28 76.7332 192.485 76.2759 192.896C75.8279 193.307 75.5712 193.876 75.5059 194.604H80.3499ZM82.8715 195.15C82.8715 194.357 83.0302 193.666 83.3475 193.078C83.6649 192.481 84.1035 192.019 84.6635 191.692C85.2329 191.365 85.8815 191.202 86.6095 191.202C87.5522 191.202 88.3269 191.431 88.9335 191.888C89.5495 192.345 89.9555 192.98 90.1515 193.792H88.7795C88.6489 193.325 88.3922 192.957 88.0095 192.686C87.6362 192.415 87.1695 192.28 86.6095 192.28C85.8815 192.28 85.2935 192.532 84.8455 193.036C84.3975 193.531 84.1735 194.235 84.1735 195.15C84.1735 196.074 84.3975 196.788 84.8455 197.292C85.2935 197.796 85.8815 198.048 86.6095 198.048C87.1695 198.048 87.6362 197.917 88.0095 197.656C88.3829 197.395 88.6395 197.021 88.7795 196.536H90.1515C89.9462 197.32 89.5355 197.95 88.9195 198.426C88.3035 198.893 87.5335 199.126 86.6095 199.126C85.8815 199.126 85.2329 198.963 84.6635 198.636C84.1035 198.309 83.6649 197.847 83.3475 197.25C83.0302 196.653 82.8715 195.953 82.8715 195.15ZM95.1974 199.126C94.4788 199.126 93.8254 198.963 93.2374 198.636C92.6588 198.309 92.2014 197.847 91.8654 197.25C91.5388 196.643 91.3754 195.943 91.3754 195.15C91.3754 194.366 91.5434 193.675 91.8794 193.078C92.2248 192.471 92.6914 192.009 93.2794 191.692C93.8674 191.365 94.5254 191.202 95.2534 191.202C95.9814 191.202 96.6394 191.365 97.2274 191.692C97.8154 192.009 98.2774 192.467 98.6134 193.064C98.9588 193.661 99.1314 194.357 99.1314 195.15C99.1314 195.943 98.9541 196.643 98.5994 197.25C98.2541 197.847 97.7828 198.309 97.1854 198.636C96.5881 198.963 95.9254 199.126 95.1974 199.126ZM95.1974 198.006C95.6548 198.006 96.0841 197.899 96.4854 197.684C96.8868 197.469 97.2088 197.147 97.4514 196.718C97.7034 196.289 97.8294 195.766 97.8294 195.15C97.8294 194.534 97.7081 194.011 97.4654 193.582C97.2228 193.153 96.9054 192.835 96.5134 192.63C96.1214 192.415 95.6968 192.308 95.2394 192.308C94.7728 192.308 94.3434 192.415 93.9514 192.63C93.5688 192.835 93.2608 193.153 93.0274 193.582C92.7941 194.011 92.6774 194.534 92.6774 195.15C92.6774 195.775 92.7894 196.303 93.0134 196.732C93.2468 197.161 93.5548 197.483 93.9374 197.698C94.3201 197.903 94.7401 198.006 95.1974 198.006ZM101.465 190.082C101.222 190.082 101.017 189.998 100.849 189.83C100.681 189.662 100.597 189.457 100.597 189.214C100.597 188.971 100.681 188.766 100.849 188.598C101.017 188.43 101.222 188.346 101.465 188.346C101.698 188.346 101.894 188.43 102.053 188.598C102.221 188.766 102.305 188.971 102.305 189.214C102.305 189.457 102.221 189.662 102.053 189.83C101.894 189.998 101.698 190.082 101.465 190.082ZM102.081 191.328V199H100.807V191.328H102.081ZM107.99 191.188C108.923 191.188 109.679 191.473 110.258 192.042C110.836 192.602 111.126 193.414 111.126 194.478V199H109.866V194.66C109.866 193.895 109.674 193.311 109.292 192.91C108.909 192.499 108.386 192.294 107.724 192.294C107.052 192.294 106.515 192.504 106.114 192.924C105.722 193.344 105.526 193.955 105.526 194.758V199H104.252V191.328H105.526V192.42C105.778 192.028 106.118 191.725 106.548 191.51C106.986 191.295 107.467 191.188 107.99 191.188ZM122.259 193.33V194.408H116.673V193.33H122.259ZM129.657 189.242V199H128.383V189.242H129.657ZM137.834 189.242V190.278H135.174V199H133.9V190.278H131.226V189.242H137.834ZM140.676 197.964H144.092V199H139.402V189.242H140.676V197.964Z" fill="#9E9E9E"/>
<rect x="59" y="61" width="52" height="52" rx="10" fill="#3855EC"/>
<path d="M85 77C79.48 77 75 81.48 75 87C75 92.52 79.48 97 85 97C90.52 97 95 92.52 95 87C95 81.48 90.52 77 85 77ZM88.82 91.32C88.73 91.8 88.32 92.14 87.84 92.14H82.3C81.64 92.14 81.16 91.5 81.34 90.87L82.18 87.92L80.47 88.26C80.42 88.27 80.37 88.27 80.32 88.27C79.97 88.27 79.66 88.02 79.59 87.67C79.51 87.26 79.77 86.87 80.18 86.79L82.65 86.3L83.96 81.73C84.02 81.52 84.22 81.37 84.44 81.37H85.8C86.46 81.37 86.94 81.99 86.77 82.63L85.96 85.64L87.89 85.25C88.29 85.17 88.69 85.43 88.77 85.84C88.85 86.25 88.59 86.64 88.18 86.72L85.52 87.25L84.97 89.3H88C88.62 89.3 89.09 89.86 88.98 90.48L88.82 91.32Z" fill="white"/>
<defs>
<filter id="filter0_d_2301_650" x="0" y="0" width="318" height="271" filterUnits="userSpaceOnUse" color-interpolation-filters="sRGB">
<feFlood flood-opacity="0" result="BackgroundImageFix"/>
<feColorMatrix in="SourceAlpha" type="matrix" values="0 0 0 0 0 0 0 0 0 0 0 0 0 0 0 0 0 0 127 0" result="hardAlpha"/>
<feOffset dx="4" dy="4"/>
<feGaussianBlur stdDeviation="16.5"/>
<feComposite in2="hardAlpha" operator="out"/>
<feColorMatrix type="matrix" values="0 0 0 0 0 0 0 0 0 0 0 0 0 0 0 0 0 0 0.05 0"/>
<feBlend mode="normal" in2="BackgroundImageFix" result="effect1_dropShadow_2301_650"/>
<feBlend mode="normal" in="SourceGraphic" in2="effect1_dropShadow_2301_650" result="shape"/>
</filter>
</defs>
</svg>
