<svg width="318" height="271" viewBox="0 0 318 271" fill="none" xmlns="http://www.w3.org/2000/svg">
<g filter="url(#filter0_d_2301_593)">
<rect width="252" height="205" rx="20" transform="matrix(-1 0 0 1 281 29)" fill="white"/>
</g>
<path d="M175.99 84.5149L178.398 86.9224L179.868 88.3999C180.49 89.0224 181.503 89.0224 182.125 88.3999L186.01 84.5149C186.52 84.0049 186.153 83.1349 185.44 83.1349L181.233 83.1349L176.56 83.1349C175.84 83.1349 175.48 84.0049 175.99 84.5149Z" fill="#FF8D4D"/>
<path d="M206.972 85.26V86.604H201.218V85.26H206.972ZM209.911 88.83C210.807 88.0553 211.512 87.4207 212.025 86.926C212.548 86.422 212.982 85.8993 213.327 85.358C213.673 84.8167 213.845 84.2753 213.845 83.734C213.845 83.174 213.71 82.7353 213.439 82.418C213.178 82.1007 212.763 81.942 212.193 81.942C211.643 81.942 211.213 82.1193 210.905 82.474C210.607 82.8193 210.448 83.286 210.429 83.874H208.889C208.917 82.81 209.235 81.998 209.841 81.438C210.457 80.8687 211.237 80.584 212.179 80.584C213.197 80.584 213.99 80.864 214.559 81.424C215.138 81.984 215.427 82.7307 215.427 83.664C215.427 84.336 215.255 84.9847 214.909 85.61C214.573 86.226 214.167 86.7813 213.691 87.276C213.225 87.7613 212.627 88.326 211.899 88.97L211.269 89.53H215.707V90.86H208.903V89.698L209.911 88.83ZM217.964 91.098C217.674 91.098 217.432 91 217.236 90.804C217.04 90.608 216.942 90.3653 216.942 90.076C216.942 89.7867 217.04 89.544 217.236 89.348C217.432 89.152 217.674 89.054 217.964 89.054C218.244 89.054 218.482 89.152 218.678 89.348C218.874 89.544 218.972 89.7867 218.972 90.076C218.972 90.3653 218.874 90.608 218.678 90.804C218.482 91 218.244 91.098 217.964 91.098ZM220.486 85.764C220.486 84.1493 220.757 82.8893 221.298 81.984C221.849 81.0693 222.792 80.612 224.126 80.612C225.461 80.612 226.399 81.0693 226.94 81.984C227.491 82.8893 227.766 84.1493 227.766 85.764C227.766 87.3973 227.491 88.676 226.94 89.6C226.399 90.5147 225.461 90.972 224.126 90.972C222.792 90.972 221.849 90.5147 221.298 89.6C220.757 88.676 220.486 87.3973 220.486 85.764ZM226.198 85.764C226.198 85.008 226.147 84.3687 226.044 83.846C225.951 83.3233 225.755 82.8987 225.456 82.572C225.158 82.236 224.714 82.068 224.126 82.068C223.538 82.068 223.095 82.236 222.796 82.572C222.498 82.8987 222.297 83.3233 222.194 83.846C222.101 84.3687 222.054 85.008 222.054 85.764C222.054 86.548 222.101 87.206 222.194 87.738C222.288 88.27 222.484 88.6993 222.782 89.026C223.09 89.3527 223.538 89.516 224.126 89.516C224.714 89.516 225.158 89.3527 225.456 89.026C225.764 88.6993 225.965 88.27 226.058 87.738C226.152 87.206 226.198 86.548 226.198 85.764ZM236.035 82.166H231.345V84.952C231.541 84.6907 231.831 84.4713 232.213 84.294C232.605 84.1167 233.021 84.028 233.459 84.028C234.243 84.028 234.878 84.196 235.363 84.532C235.858 84.868 236.208 85.2927 236.413 85.806C236.628 86.3193 236.735 86.8607 236.735 87.43C236.735 88.1207 236.6 88.7367 236.329 89.278C236.068 89.81 235.671 90.23 235.139 90.538C234.617 90.846 233.973 91 233.207 91C232.19 91 231.373 90.748 230.757 90.244C230.141 89.74 229.773 89.0727 229.651 88.242H231.205C231.308 88.6807 231.537 89.0307 231.891 89.292C232.246 89.544 232.689 89.67 233.221 89.67C233.884 89.67 234.379 89.4693 234.705 89.068C235.041 88.6667 235.209 88.1347 235.209 87.472C235.209 86.8 235.041 86.2867 234.705 85.932C234.369 85.568 233.875 85.386 233.221 85.386C232.764 85.386 232.377 85.5027 232.059 85.736C231.751 85.96 231.527 86.268 231.387 86.66H229.875V80.766H236.035V82.166ZM238.145 83.258C238.145 82.5767 238.341 82.0447 238.733 81.662C239.134 81.27 239.647 81.074 240.273 81.074C240.898 81.074 241.407 81.27 241.799 81.662C242.2 82.0447 242.401 82.5767 242.401 83.258C242.401 83.9393 242.2 84.476 241.799 84.868C241.407 85.26 240.898 85.456 240.273 85.456C239.647 85.456 239.134 85.26 238.733 84.868C238.341 84.476 238.145 83.9393 238.145 83.258ZM246.685 81.256L241.099 91H239.531L245.117 81.256H246.685ZM240.273 82.04C239.685 82.04 239.391 82.446 239.391 83.258C239.391 84.0793 239.685 84.49 240.273 84.49C240.553 84.49 240.767 84.392 240.917 84.196C241.075 83.9907 241.155 83.678 241.155 83.258C241.155 82.446 240.861 82.04 240.273 82.04ZM243.843 88.984C243.843 88.3027 244.039 87.7707 244.431 87.388C244.832 86.996 245.345 86.8 245.971 86.8C246.587 86.8 247.091 86.996 247.483 87.388C247.884 87.7707 248.085 88.3027 248.085 88.984C248.085 89.6653 247.884 90.202 247.483 90.594C247.091 90.986 246.587 91.182 245.971 91.182C245.345 91.182 244.832 90.986 244.431 90.594C244.039 90.202 243.843 89.6653 243.843 88.984ZM245.957 87.766C245.369 87.766 245.075 88.172 245.075 88.984C245.075 89.796 245.369 90.202 245.957 90.202C246.545 90.202 246.839 89.796 246.839 88.984C246.839 88.172 246.545 87.766 245.957 87.766Z" fill="#FF8D4D"/>
<path d="M74.876 162.372C74.876 163.343 74.624 164.257 74.12 165.116C73.6347 165.956 72.9067 166.656 71.936 167.216C70.984 167.757 69.8547 168.075 68.548 168.168V170.436H66.756V168.14C64.8893 167.972 63.3867 167.412 62.248 166.46C61.1093 165.489 60.5213 164.183 60.484 162.54H64.684C64.796 163.884 65.4867 164.696 66.756 164.976V159.628C65.412 159.292 64.3293 158.956 63.508 158.62C62.6867 158.284 61.9773 157.743 61.38 156.996C60.7827 156.249 60.484 155.232 60.484 153.944C60.484 152.32 61.0627 150.995 62.22 149.968C63.396 148.941 64.908 148.353 66.756 148.204V145.936H68.548V148.204C70.34 148.353 71.768 148.895 72.832 149.828C73.9147 150.761 74.5213 152.049 74.652 153.692H70.424C70.368 153.151 70.172 152.684 69.836 152.292C69.5187 151.881 69.0893 151.592 68.548 151.424V156.716C69.948 157.071 71.0493 157.416 71.852 157.752C72.6733 158.069 73.3827 158.601 73.98 159.348C74.5773 160.076 74.876 161.084 74.876 162.372ZM64.572 153.748C64.572 154.364 64.7587 154.868 65.132 155.26C65.5053 155.633 66.0467 155.941 66.756 156.184V151.34C66.084 151.433 65.552 151.685 65.16 152.096C64.768 152.507 64.572 153.057 64.572 153.748ZM68.548 165.032C69.2573 164.901 69.808 164.612 70.2 164.164C70.6107 163.716 70.816 163.175 70.816 162.54C70.816 161.924 70.62 161.429 70.228 161.056C69.836 160.683 69.276 160.375 68.548 160.132V165.032ZM78.8603 152.964C78.9536 151.097 79.607 149.66 80.8203 148.652C82.0523 147.625 83.667 147.112 85.6643 147.112C87.027 147.112 88.1936 147.355 89.1643 147.84C90.135 148.307 90.863 148.951 91.3483 149.772C91.8523 150.575 92.1043 151.489 92.1043 152.516C92.1043 153.692 91.7963 154.691 91.1803 155.512C90.583 156.315 89.8643 156.856 89.0243 157.136V157.248C90.107 157.584 90.947 158.181 91.5443 159.04C92.1603 159.899 92.4683 161 92.4683 162.344C92.4683 163.464 92.207 164.463 91.6843 165.34C91.1803 166.217 90.4243 166.908 89.4163 167.412C88.427 167.897 87.2323 168.14 85.8323 168.14C83.723 168.14 82.0056 167.608 80.6803 166.544C79.355 165.48 78.655 163.912 78.5803 161.84H82.3883C82.4256 162.755 82.7336 163.492 83.3123 164.052C83.9096 164.593 84.7216 164.864 85.7483 164.864C86.7003 164.864 87.4283 164.603 87.9323 164.08C88.455 163.539 88.7163 162.848 88.7163 162.008C88.7163 160.888 88.3616 160.085 87.6523 159.6C86.943 159.115 85.8416 158.872 84.3483 158.872H83.5363V155.652H84.3483C86.999 155.652 88.3243 154.765 88.3243 152.992C88.3243 152.189 88.0816 151.564 87.5963 151.116C87.1296 150.668 86.4483 150.444 85.5523 150.444C84.675 150.444 83.9936 150.687 83.5083 151.172C83.0416 151.639 82.771 152.236 82.6963 152.964H78.8603ZM100.298 163.884L97.022 171.752H94.502L96.322 163.884H100.298ZM103.907 163.576C105.699 162.083 107.127 160.841 108.191 159.852C109.255 158.844 110.142 157.799 110.851 156.716C111.561 155.633 111.915 154.569 111.915 153.524C111.915 152.572 111.691 151.825 111.243 151.284C110.795 150.743 110.105 150.472 109.171 150.472C108.238 150.472 107.519 150.789 107.015 151.424C106.511 152.04 106.25 152.889 106.231 153.972H102.423C102.498 151.732 103.161 150.033 104.411 148.876C105.681 147.719 107.286 147.14 109.227 147.14C111.355 147.14 112.989 147.709 114.127 148.848C115.266 149.968 115.835 151.452 115.835 153.3C115.835 154.756 115.443 156.147 114.659 157.472C113.875 158.797 112.979 159.955 111.971 160.944C110.963 161.915 109.647 163.091 108.023 164.472H116.283V167.72H102.451V164.808L103.907 163.576ZM123.29 162.26C123.439 163.081 123.775 163.716 124.298 164.164C124.839 164.593 125.558 164.808 126.454 164.808C127.611 164.808 128.451 164.332 128.974 163.38C129.496 162.409 129.758 160.785 129.758 158.508C129.328 159.105 128.722 159.572 127.938 159.908C127.172 160.244 126.342 160.412 125.446 160.412C124.251 160.412 123.168 160.169 122.198 159.684C121.246 159.18 120.49 158.443 119.93 157.472C119.37 156.483 119.09 155.288 119.09 153.888C119.09 151.816 119.706 150.173 120.938 148.96C122.17 147.728 123.85 147.112 125.978 147.112C128.628 147.112 130.495 147.961 131.578 149.66C132.679 151.359 133.23 153.916 133.23 157.332C133.23 159.759 133.015 161.747 132.586 163.296C132.175 164.845 131.456 166.021 130.43 166.824C129.422 167.627 128.04 168.028 126.286 168.028C124.904 168.028 123.728 167.767 122.758 167.244C121.787 166.703 121.04 166.003 120.518 165.144C120.014 164.267 119.724 163.305 119.65 162.26H123.29ZM126.258 157.22C127.228 157.22 127.994 156.921 128.554 156.324C129.114 155.727 129.394 154.924 129.394 153.916C129.394 152.815 129.095 151.965 128.498 151.368C127.919 150.752 127.126 150.444 126.118 150.444C125.11 150.444 124.307 150.761 123.71 151.396C123.131 152.012 122.842 152.833 122.842 153.86C122.842 154.849 123.122 155.661 123.682 156.296C124.26 156.912 125.119 157.22 126.258 157.22ZM135.805 151.2V147.588H142.553V168H138.521V151.2H135.805Z" fill="#1A1A1A"/>
<path d="M59.602 194.114C59.602 193.162 59.8167 192.308 60.246 191.552C60.6753 190.787 61.2587 190.189 61.996 189.76C62.7427 189.331 63.5687 189.116 64.474 189.116C65.538 189.116 66.4667 189.373 67.26 189.886C68.0533 190.399 68.632 191.127 68.996 192.07H67.47C67.1993 191.482 66.8073 191.029 66.294 190.712C65.79 190.395 65.1833 190.236 64.474 190.236C63.7927 190.236 63.1813 190.395 62.64 190.712C62.0987 191.029 61.674 191.482 61.366 192.07C61.058 192.649 60.904 193.33 60.904 194.114C60.904 194.889 61.058 195.57 61.366 196.158C61.674 196.737 62.0987 197.185 62.64 197.502C63.1813 197.819 63.7927 197.978 64.474 197.978C65.1833 197.978 65.79 197.824 66.294 197.516C66.8073 197.199 67.1993 196.746 67.47 196.158H68.996C68.632 197.091 68.0533 197.815 67.26 198.328C66.4667 198.832 65.538 199.084 64.474 199.084C63.5687 199.084 62.7427 198.874 61.996 198.454C61.2587 198.025 60.6753 197.432 60.246 196.676C59.8167 195.92 59.602 195.066 59.602 194.114ZM70.4165 195.136C70.4165 194.352 70.5751 193.666 70.8925 193.078C71.2098 192.481 71.6438 192.019 72.1945 191.692C72.7545 191.365 73.3751 191.202 74.0565 191.202C74.7285 191.202 75.3118 191.347 75.8065 191.636C76.3011 191.925 76.6698 192.289 76.9125 192.728V191.328H78.2005V199H76.9125V197.572C76.6605 198.02 76.2825 198.393 75.7785 198.692C75.2838 198.981 74.7051 199.126 74.0425 199.126C73.3611 199.126 72.7451 198.958 72.1945 198.622C71.6438 198.286 71.2098 197.815 70.8925 197.208C70.5751 196.601 70.4165 195.911 70.4165 195.136ZM76.9125 195.15C76.9125 194.571 76.7958 194.067 76.5625 193.638C76.3291 193.209 76.0118 192.882 75.6105 192.658C75.2185 192.425 74.7845 192.308 74.3085 192.308C73.8325 192.308 73.3985 192.42 73.0065 192.644C72.6145 192.868 72.3018 193.195 72.0685 193.624C71.8351 194.053 71.7185 194.557 71.7185 195.136C71.7185 195.724 71.8351 196.237 72.0685 196.676C72.3018 197.105 72.6145 197.437 73.0065 197.67C73.3985 197.894 73.8325 198.006 74.3085 198.006C74.7845 198.006 75.2185 197.894 75.6105 197.67C76.0118 197.437 76.3291 197.105 76.5625 196.676C76.7958 196.237 76.9125 195.729 76.9125 195.15ZM81.6274 192.574C81.8514 192.135 82.1687 191.795 82.5794 191.552C82.9994 191.309 83.5081 191.188 84.1054 191.188V192.504H83.7694C82.3414 192.504 81.6274 193.279 81.6274 194.828V199H80.3534V191.328H81.6274V192.574ZM85.1 195.136C85.1 194.352 85.2587 193.666 85.576 193.078C85.8934 192.481 86.3274 192.019 86.878 191.692C87.438 191.365 88.0634 191.202 88.754 191.202C89.3514 191.202 89.9067 191.342 90.42 191.622C90.9334 191.893 91.3254 192.252 91.596 192.7V188.64H92.884V199H91.596V197.558C91.344 198.015 90.9707 198.393 90.476 198.692C89.9814 198.981 89.4027 199.126 88.74 199.126C88.0587 199.126 87.438 198.958 86.878 198.622C86.3274 198.286 85.8934 197.815 85.576 197.208C85.2587 196.601 85.1 195.911 85.1 195.136ZM91.596 195.15C91.596 194.571 91.4794 194.067 91.246 193.638C91.0127 193.209 90.6954 192.882 90.294 192.658C89.902 192.425 89.468 192.308 88.992 192.308C88.516 192.308 88.082 192.42 87.69 192.644C87.298 192.868 86.9854 193.195 86.752 193.624C86.5187 194.053 86.402 194.557 86.402 195.136C86.402 195.724 86.5187 196.237 86.752 196.676C86.9854 197.105 87.298 197.437 87.69 197.67C88.082 197.894 88.516 198.006 88.992 198.006C89.468 198.006 89.902 197.894 90.294 197.67C90.6954 197.437 91.0127 197.105 91.246 196.676C91.4794 196.237 91.596 195.729 91.596 195.15ZM94.561 195.136C94.561 194.352 94.7197 193.666 95.037 193.078C95.3543 192.481 95.7883 192.019 96.339 191.692C96.899 191.365 97.5197 191.202 98.201 191.202C98.873 191.202 99.4563 191.347 99.951 191.636C100.446 191.925 100.814 192.289 101.057 192.728V191.328H102.345V199H101.057V197.572C100.805 198.02 100.427 198.393 99.923 198.692C99.4283 198.981 98.8497 199.126 98.187 199.126C97.5057 199.126 96.8897 198.958 96.339 198.622C95.7883 198.286 95.3543 197.815 95.037 197.208C94.7197 196.601 94.561 195.911 94.561 195.136ZM101.057 195.15C101.057 194.571 100.94 194.067 100.707 193.638C100.474 193.209 100.156 192.882 99.755 192.658C99.363 192.425 98.929 192.308 98.453 192.308C97.977 192.308 97.543 192.42 97.151 192.644C96.759 192.868 96.4463 193.195 96.213 193.624C95.9797 194.053 95.863 194.557 95.863 195.136C95.863 195.724 95.9797 196.237 96.213 196.676C96.4463 197.105 96.759 197.437 97.151 197.67C97.543 197.894 97.977 198.006 98.453 198.006C98.929 198.006 99.363 197.894 99.755 197.67C100.156 197.437 100.474 197.105 100.707 196.676C100.94 196.237 101.057 195.729 101.057 195.15ZM108.236 191.188C109.169 191.188 109.925 191.473 110.504 192.042C111.083 192.602 111.372 193.414 111.372 194.478V199H110.112V194.66C110.112 193.895 109.921 193.311 109.538 192.91C109.155 192.499 108.633 192.294 107.97 192.294C107.298 192.294 106.761 192.504 106.36 192.924C105.968 193.344 105.772 193.955 105.772 194.758V199H104.498V191.328H105.772V192.42C106.024 192.028 106.365 191.725 106.794 191.51C107.233 191.295 107.713 191.188 108.236 191.188ZM116.799 199.126C116.08 199.126 115.427 198.963 114.839 198.636C114.26 198.309 113.803 197.847 113.467 197.25C113.14 196.643 112.977 195.943 112.977 195.15C112.977 194.366 113.145 193.675 113.481 193.078C113.826 192.471 114.293 192.009 114.881 191.692C115.469 191.365 116.127 191.202 116.855 191.202C117.583 191.202 118.241 191.365 118.829 191.692C119.417 192.009 119.879 192.467 120.215 193.064C120.56 193.661 120.733 194.357 120.733 195.15C120.733 195.943 120.556 196.643 120.201 197.25C119.856 197.847 119.384 198.309 118.787 198.636C118.19 198.963 117.527 199.126 116.799 199.126ZM116.799 198.006C117.256 198.006 117.686 197.899 118.087 197.684C118.488 197.469 118.81 197.147 119.053 196.718C119.305 196.289 119.431 195.766 119.431 195.15C119.431 194.534 119.31 194.011 119.067 193.582C118.824 193.153 118.507 192.835 118.115 192.63C117.723 192.415 117.298 192.308 116.841 192.308C116.374 192.308 115.945 192.415 115.553 192.63C115.17 192.835 114.862 193.153 114.629 193.582C114.396 194.011 114.279 194.534 114.279 195.15C114.279 195.775 114.391 196.303 114.615 196.732C114.848 197.161 115.156 197.483 115.539 197.698C115.922 197.903 116.342 198.006 116.799 198.006ZM131.461 193.33V194.408H125.875V193.33H131.461ZM143.352 196.83H139.096L138.312 199H136.968L140.496 189.298H141.966L145.48 199H144.136L143.352 196.83ZM142.988 195.794L141.224 190.866L139.46 195.794H142.988ZM150.055 189.242C151.119 189.242 152.039 189.443 152.813 189.844C153.597 190.236 154.195 190.801 154.605 191.538C155.025 192.275 155.235 193.143 155.235 194.142C155.235 195.141 155.025 196.009 154.605 196.746C154.195 197.474 153.597 198.034 152.813 198.426C152.039 198.809 151.119 199 150.055 199H147.017V189.242H150.055ZM150.055 197.95C151.315 197.95 152.277 197.619 152.939 196.956C153.602 196.284 153.933 195.346 153.933 194.142C153.933 192.929 153.597 191.981 152.925 191.3C152.263 190.619 151.306 190.278 150.055 190.278H148.291V197.95H150.055ZM162.684 196.83H158.428L157.644 199H156.3L159.828 189.298H161.298L164.812 199H163.468L162.684 196.83ZM162.32 195.794L160.556 190.866L158.792 195.794H162.32Z" fill="#9E9E9E"/>
<rect x="59" y="61" width="52" height="52" rx="10" fill="#1ECB4F"/>
<path d="M90.1499 85C90.7022 85 91.1499 84.5523 91.1499 84C91.1499 83.4477 90.7022 83 90.1499 83C89.5976 83 89.1499 83.4477 89.1499 84C89.1499 84.5523 89.5976 85 90.1499 85Z" fill="white"/>
<path d="M90.1499 91C90.7022 91 91.1499 90.5523 91.1499 90C91.1499 89.4477 90.7022 89 90.1499 89C89.5976 89 89.1499 89.4477 89.1499 90C89.1499 90.5523 89.5976 91 90.1499 91Z" fill="white"/>
<path d="M92.75 88C93.3023 88 93.75 87.5523 93.75 87C93.75 86.4477 93.3023 86 92.75 86C92.1977 86 91.75 86.4477 91.75 87C91.75 87.5523 92.1977 88 92.75 88Z" fill="white"/>
<path d="M79.7998 85C80.3521 85 80.7998 84.5523 80.7998 84C80.7998 83.4477 80.3521 83 79.7998 83C79.2475 83 78.7998 83.4477 78.7998 84C78.7998 84.5523 79.2475 85 79.7998 85Z" fill="white"/>
<path d="M79.7998 91C80.3521 91 80.7998 90.5523 80.7998 90C80.7998 89.4477 80.3521 89 79.7998 89C79.2475 89 78.7998 89.4477 78.7998 90C78.7998 90.5523 79.2475 91 79.7998 91Z" fill="white"/>
<path d="M77.2 88C77.7522 88 78.2 87.5523 78.2 87C78.2 86.4477 77.7522 86 77.2 86C76.6477 86 76.2 86.4477 76.2 87C76.2 87.5523 76.6477 88 77.2 88Z" fill="white"/>
<path d="M88.8999 81.2C89.4522 81.2 89.8999 80.7522 89.8999 80.2C89.8999 79.6477 89.4522 79.2 88.8999 79.2C88.3476 79.2 87.8999 79.6477 87.8999 80.2C87.8999 80.7522 88.3476 81.2 88.8999 81.2Z" fill="white"/>
<path d="M81.0999 81.2C81.6521 81.2 82.0999 80.7522 82.0999 80.2C82.0999 79.6477 81.6521 79.2 81.0999 79.2C80.5476 79.2 80.0999 79.6477 80.0999 80.2C80.0999 80.7522 80.5476 81.2 81.0999 81.2Z" fill="white"/>
<path d="M85.0498 82C85.6021 82 86.0498 81.5523 86.0498 81C86.0498 80.4477 85.6021 80 85.0498 80C84.4975 80 84.0498 80.4477 84.0498 81C84.0498 81.5523 84.4975 82 85.0498 82Z" fill="white"/>
<path d="M88.8999 95C89.4522 95 89.8999 94.5523 89.8999 94C89.8999 93.4477 89.4522 93 88.8999 93C88.3476 93 87.8999 93.4477 87.8999 94C87.8999 94.5523 88.3476 95 88.8999 95Z" fill="white"/>
<path d="M81.0999 95C81.6521 95 82.0999 94.5523 82.0999 94C82.0999 93.4477 81.6521 93 81.0999 93C80.5476 93 80.0999 93.4477 80.0999 94C80.0999 94.5523 80.5476 95 81.0999 95Z" fill="white"/>
<path d="M85.0498 94.2C85.6021 94.2 86.0498 93.7522 86.0498 93.2C86.0498 92.6477 85.6021 92.2 85.0498 92.2C84.4975 92.2 84.0498 92.6477 84.0498 93.2C84.0498 93.7522 84.4975 94.2 85.0498 94.2Z" fill="white"/>
<path d="M86.75 85.25C87.4404 85.25 88 84.6904 88 84C88 83.3096 87.4404 82.75 86.75 82.75C86.0596 82.75 85.5 83.3096 85.5 84C85.5 84.6904 86.0596 85.25 86.75 85.25Z" fill="white"/>
<path d="M83.25 85.25C83.9404 85.25 84.5 84.6904 84.5 84C84.5 83.3096 83.9404 82.75 83.25 82.75C82.5596 82.75 82 83.3096 82 84C82 84.6904 82.5596 85.25 83.25 85.25Z" fill="white"/>
<path d="M88.5 88.25C89.1904 88.25 89.75 87.6904 89.75 87C89.75 86.3096 89.1904 85.75 88.5 85.75C87.8096 85.75 87.25 86.3096 87.25 87C87.25 87.6904 87.8096 88.25 88.5 88.25Z" fill="white"/>
<path d="M81.5 88.25C82.1904 88.25 82.75 87.6904 82.75 87C82.75 86.3096 82.1904 85.75 81.5 85.75C80.8096 85.75 80.25 86.3096 80.25 87C80.25 87.6904 80.8096 88.25 81.5 88.25Z" fill="white"/>
<path d="M83.25 91.25C83.9404 91.25 84.5 90.6904 84.5 90C84.5 89.3096 83.9404 88.75 83.25 88.75C82.5596 88.75 82 89.3096 82 90C82 90.6904 82.5596 91.25 83.25 91.25Z" fill="white"/>
<path d="M86.75 91.25C87.4404 91.25 88 90.6904 88 90C88 89.3096 87.4404 88.75 86.75 88.75C86.0596 88.75 85.5 89.3096 85.5 90C85.5 90.6904 86.0596 91.25 86.75 91.25Z" fill="white"/>
<path d="M85.0001 78.3299C84.5101 78.3299 84.1201 77.9399 84.1201 77.4499C84.1201 76.9599 84.5101 76.5699 85.0001 76.5699C85.4901 76.5699 85.8801 76.9599 85.8801 77.4499C85.8801 77.9399 85.4901 78.3299 85.0001 78.3299Z" fill="white"/>
<path d="M90.25 78.6C89.83 78.6 89.49 78.26 89.49 77.85C89.49 77.44 89.83 77.1 90.24 77.1C90.65 77.1 91 77.44 91 77.85C91 78.26 90.67 78.6 90.25 78.6Z" fill="white"/>
<path d="M79.75 78.6C79.34 78.6 79 78.26 79 77.85C79 77.44 79.33 77.1 79.75 77.1H79.76C80.17 77.1 80.51 77.44 80.51 77.85C80.51 78.26 80.17 78.6 79.75 78.6Z" fill="white"/>
<path d="M85.0001 97.38C84.5101 97.38 84.1201 96.99 84.1201 96.5C84.1201 96.01 84.5101 95.62 85.0001 95.62C85.4901 95.62 85.8801 96.01 85.8801 96.5C85.8801 96.99 85.4901 97.38 85.0001 97.38Z" fill="white"/>
<path d="M90.25 96.85C89.83 96.85 89.49 96.51 89.49 96.1C89.49 95.69 89.83 95.35 90.24 95.35C90.65 95.35 91 95.69 91 96.1C91 96.51 90.67 96.85 90.25 96.85Z" fill="white"/>
<path d="M79.75 96.85C79.34 96.85 79 96.51 79 96.1C79 95.69 79.33 95.35 79.75 95.35H79.76C80.17 95.35 80.51 95.69 80.51 96.1C80.51 96.51 80.17 96.85 79.75 96.85Z" fill="white"/>
<path d="M74.5499 87.88C74.0699 87.88 73.6699 87.49 73.6699 87.01V87C73.6699 86.52 74.0599 86.12 74.5499 86.12C75.0399 86.12 75.4299 86.51 75.4299 87C75.4299 87.49 75.0299 87.88 74.5499 87.88Z" fill="white"/>
<path d="M76.75 92.75C76.34 92.75 76 92.42 76 92V91.99C76 91.58 76.34 91.24 76.75 91.24C77.16 91.24 77.5 91.58 77.5 91.99C77.5 92.4 77.16 92.75 76.75 92.75Z" fill="white"/>
<path d="M76.75 82.76C76.34 82.76 76 82.42 76 82.01C76 81.6 76.34 81.26 76.75 81.26C77.16 81.26 77.5 81.59 77.5 82V82.01C77.5 82.42 77.16 82.76 76.75 82.76Z" fill="white"/>
<path d="M95.5001 87.88C95.0201 87.88 94.6201 87.49 94.6201 87.01V87C94.6201 86.52 95.0101 86.12 95.5001 86.12C95.9901 86.12 96.3801 86.51 96.3801 87C96.3801 87.49 95.9801 87.88 95.5001 87.88Z" fill="white"/>
<path d="M93.3 92.75C92.89 92.75 92.55 92.42 92.55 92V91.99C92.55 91.58 92.89 91.24 93.3 91.24C93.71 91.24 94.05 91.58 94.05 91.99C94.05 92.4 93.71 92.75 93.3 92.75Z" fill="white"/>
<path d="M93.3 82.76C92.89 82.76 92.55 82.42 92.55 82.01C92.55 81.6 92.89 81.26 93.3 81.26C93.71 81.26 94.05 81.59 94.05 82.01V82.02C94.05 82.42 93.71 82.76 93.3 82.76Z" fill="white"/>
<defs>
<filter id="filter0_d_2301_593" x="0" y="0" width="318" height="271" filterUnits="userSpaceOnUse" color-interpolation-filters="sRGB">
<feFlood flood-opacity="0" result="BackgroundImageFix"/>
<feColorMatrix in="SourceAlpha" type="matrix" values="0 0 0 0 0 0 0 0 0 0 0 0 0 0 0 0 0 0 127 0" result="hardAlpha"/>
<feOffset dx="4" dy="4"/>
<feGaussianBlur stdDeviation="16.5"/>
<feComposite in2="hardAlpha" operator="out"/>
<feColorMatrix type="matrix" values="0 0 0 0 0 0 0 0 0 0 0 0 0 0 0 0 0 0 0.05 0"/>
<feBlend mode="normal" in2="BackgroundImageFix" result="effect1_dropShadow_2301_593"/>
<feBlend mode="normal" in="SourceGraphic" in2="effect1_dropShadow_2301_593" result="shape"/>
</filter>
</defs>
</svg>
