<svg width="318" height="271" viewBox="0 0 318 271" fill="none" xmlns="http://www.w3.org/2000/svg">
<g filter="url(#filter0_d_2301_576)">
<rect width="252" height="205" rx="20" transform="matrix(-1 0 0 1 281 29)" fill="white"/>
</g>
<path d="M186.01 87.4851L183.602 85.0776L182.132 83.6001C181.51 82.9776 180.497 82.9776 179.875 83.6001L175.99 87.4851C175.48 87.9951 175.847 88.8651 176.56 88.8651H180.767H185.44C186.16 88.8651 186.52 87.9951 186.01 87.4851Z" fill="#1ECB4F"/>
<path d="M208.568 86.618H205.74V89.516H204.256V86.618H201.428V85.274H204.256V82.376H205.74V85.274H208.568V86.618ZM210.834 85.764C210.834 84.1493 211.105 82.8893 211.646 81.984C212.197 81.0693 213.139 80.612 214.474 80.612C215.809 80.612 216.747 81.0693 217.288 81.984C217.839 82.8893 218.114 84.1493 218.114 85.764C218.114 87.3973 217.839 88.676 217.288 89.6C216.747 90.5147 215.809 90.972 214.474 90.972C213.139 90.972 212.197 90.5147 211.646 89.6C211.105 88.676 210.834 87.3973 210.834 85.764ZM216.546 85.764C216.546 85.008 216.495 84.3687 216.392 83.846C216.299 83.3233 216.103 82.8987 215.804 82.572C215.505 82.236 215.062 82.068 214.474 82.068C213.886 82.068 213.443 82.236 213.144 82.572C212.845 82.8987 212.645 83.3233 212.542 83.846C212.449 84.3687 212.402 85.008 212.402 85.764C212.402 86.548 212.449 87.206 212.542 87.738C212.635 88.27 212.831 88.6993 213.13 89.026C213.438 89.3527 213.886 89.516 214.474 89.516C215.062 89.516 215.505 89.3527 215.804 89.026C216.112 88.6993 216.313 88.27 216.406 87.738C216.499 87.206 216.546 86.548 216.546 85.764ZM220.657 91.098C220.368 91.098 220.125 91 219.929 90.804C219.733 90.608 219.635 90.3653 219.635 90.076C219.635 89.7867 219.733 89.544 219.929 89.348C220.125 89.152 220.368 89.054 220.657 89.054C220.937 89.054 221.175 89.152 221.371 89.348C221.567 89.544 221.665 89.7867 221.665 90.076C221.665 90.3653 221.567 90.608 221.371 90.804C221.175 91 220.937 91.098 220.657 91.098ZM224.062 88.83C224.958 88.0553 225.663 87.4207 226.176 86.926C226.699 86.422 227.133 85.8993 227.478 85.358C227.823 84.8167 227.996 84.2753 227.996 83.734C227.996 83.174 227.861 82.7353 227.59 82.418C227.329 82.1007 226.913 81.942 226.344 81.942C225.793 81.942 225.364 82.1193 225.056 82.474C224.757 82.8193 224.599 83.286 224.58 83.874H223.04C223.068 82.81 223.385 81.998 223.992 81.438C224.608 80.8687 225.387 80.584 226.33 80.584C227.347 80.584 228.141 80.864 228.71 81.424C229.289 81.984 229.578 82.7307 229.578 83.664C229.578 84.336 229.405 84.9847 229.06 85.61C228.724 86.226 228.318 86.7813 227.842 87.276C227.375 87.7613 226.778 88.326 226.05 88.97L225.42 89.53H229.858V90.86H223.054V89.698L224.062 88.83ZM237.84 82.166H233.15V84.952C233.346 84.6907 233.635 84.4713 234.018 84.294C234.41 84.1167 234.825 84.028 235.264 84.028C236.048 84.028 236.683 84.196 237.168 84.532C237.663 84.868 238.013 85.2927 238.218 85.806C238.433 86.3193 238.54 86.8607 238.54 87.43C238.54 88.1207 238.405 88.7367 238.134 89.278C237.873 89.81 237.476 90.23 236.944 90.538C236.421 90.846 235.777 91 235.012 91C233.995 91 233.178 90.748 232.562 90.244C231.946 89.74 231.577 89.0727 231.456 88.242H233.01C233.113 88.6807 233.341 89.0307 233.696 89.292C234.051 89.544 234.494 89.67 235.026 89.67C235.689 89.67 236.183 89.4693 236.51 89.068C236.846 88.6667 237.014 88.1347 237.014 87.472C237.014 86.8 236.846 86.2867 236.51 85.932C236.174 85.568 235.679 85.386 235.026 85.386C234.569 85.386 234.181 85.5027 233.864 85.736C233.556 85.96 233.332 86.268 233.192 86.66H231.68V80.766H237.84V82.166ZM239.949 83.258C239.949 82.5767 240.145 82.0447 240.537 81.662C240.939 81.27 241.452 81.074 242.077 81.074C242.703 81.074 243.211 81.27 243.603 81.662C244.005 82.0447 244.205 82.5767 244.205 83.258C244.205 83.9393 244.005 84.476 243.603 84.868C243.211 85.26 242.703 85.456 242.077 85.456C241.452 85.456 240.939 85.26 240.537 84.868C240.145 84.476 239.949 83.9393 239.949 83.258ZM248.489 81.256L242.903 91H241.335L246.921 81.256H248.489ZM242.077 82.04C241.489 82.04 241.195 82.446 241.195 83.258C241.195 84.0793 241.489 84.49 242.077 84.49C242.357 84.49 242.572 84.392 242.721 84.196C242.88 83.9907 242.959 83.678 242.959 83.258C242.959 82.446 242.665 82.04 242.077 82.04ZM245.647 88.984C245.647 88.3027 245.843 87.7707 246.235 87.388C246.637 86.996 247.15 86.8 247.775 86.8C248.391 86.8 248.895 86.996 249.287 87.388C249.689 87.7707 249.889 88.3027 249.889 88.984C249.889 89.6653 249.689 90.202 249.287 90.594C248.895 90.986 248.391 91.182 247.775 91.182C247.15 91.182 246.637 90.986 246.235 90.594C245.843 90.202 245.647 89.6653 245.647 88.984ZM247.761 87.766C247.173 87.766 246.879 88.172 246.879 88.984C246.879 89.796 247.173 90.202 247.761 90.202C248.349 90.202 248.643 89.796 248.643 88.984C248.643 88.172 248.349 87.766 247.761 87.766Z" fill="#1ECB4F"/>
<path d="M74.876 162.372C74.876 163.343 74.624 164.257 74.12 165.116C73.6347 165.956 72.9067 166.656 71.936 167.216C70.984 167.757 69.8547 168.075 68.548 168.168V170.436H66.756V168.14C64.8893 167.972 63.3867 167.412 62.248 166.46C61.1093 165.489 60.5213 164.183 60.484 162.54H64.684C64.796 163.884 65.4867 164.696 66.756 164.976V159.628C65.412 159.292 64.3293 158.956 63.508 158.62C62.6867 158.284 61.9773 157.743 61.38 156.996C60.7827 156.249 60.484 155.232 60.484 153.944C60.484 152.32 61.0627 150.995 62.22 149.968C63.396 148.941 64.908 148.353 66.756 148.204V145.936H68.548V148.204C70.34 148.353 71.768 148.895 72.832 149.828C73.9147 150.761 74.5213 152.049 74.652 153.692H70.424C70.368 153.151 70.172 152.684 69.836 152.292C69.5187 151.881 69.0893 151.592 68.548 151.424V156.716C69.948 157.071 71.0493 157.416 71.852 157.752C72.6733 158.069 73.3827 158.601 73.98 159.348C74.5773 160.076 74.876 161.084 74.876 162.372ZM64.572 153.748C64.572 154.364 64.7587 154.868 65.132 155.26C65.5053 155.633 66.0467 155.941 66.756 156.184V151.34C66.084 151.433 65.552 151.685 65.16 152.096C64.768 152.507 64.572 153.057 64.572 153.748ZM68.548 165.032C69.2573 164.901 69.808 164.612 70.2 164.164C70.6107 163.716 70.816 163.175 70.816 162.54C70.816 161.924 70.62 161.429 70.228 161.056C69.836 160.683 69.276 160.375 68.548 160.132V165.032ZM78.3283 151.2V147.588H85.0763V168H81.0443V151.2H78.3283ZM92.3648 157.192C90.4982 156.221 89.5648 154.719 89.5648 152.684C89.5648 151.676 89.8168 150.761 90.3208 149.94C90.8435 149.1 91.6182 148.437 92.6448 147.952C93.6902 147.448 94.9595 147.196 96.4528 147.196C97.9462 147.196 99.2062 147.448 100.233 147.952C101.278 148.437 102.053 149.1 102.557 149.94C103.08 150.761 103.341 151.676 103.341 152.684C103.341 153.711 103.089 154.616 102.585 155.4C102.081 156.165 101.409 156.763 100.569 157.192C101.596 157.64 102.398 158.293 102.977 159.152C103.556 160.011 103.845 161.028 103.845 162.204C103.845 163.473 103.518 164.584 102.865 165.536C102.23 166.469 101.353 167.188 100.233 167.692C99.1128 168.196 97.8528 168.448 96.4528 168.448C95.0528 168.448 93.7928 168.196 92.6728 167.692C91.5715 167.188 90.6942 166.469 90.0408 165.536C89.4062 164.584 89.0888 163.473 89.0888 162.204C89.0888 161.028 89.3782 160.011 89.9568 159.152C90.5355 158.275 91.3382 157.621 92.3648 157.192ZM99.5328 153.244C99.5328 152.329 99.2528 151.62 98.6928 151.116C98.1515 150.612 97.4048 150.36 96.4528 150.36C95.5195 150.36 94.7728 150.612 94.2128 151.116C93.6715 151.62 93.4008 152.339 93.4008 153.272C93.4008 154.112 93.6808 154.784 94.2408 155.288C94.8195 155.792 95.5568 156.044 96.4528 156.044C97.3488 156.044 98.0862 155.792 98.6648 155.288C99.2435 154.765 99.5328 154.084 99.5328 153.244ZM96.4528 158.9C95.3888 158.9 94.5208 159.171 93.8488 159.712C93.1955 160.253 92.8688 161.028 92.8688 162.036C92.8688 162.969 93.1862 163.735 93.8208 164.332C94.4742 164.911 95.3515 165.2 96.4528 165.2C97.5542 165.2 98.4222 164.901 99.0568 164.304C99.6915 163.707 100.009 162.951 100.009 162.036C100.009 161.047 99.6822 160.281 99.0288 159.74C98.3755 159.18 97.5168 158.9 96.4528 158.9ZM111.673 163.884L108.397 171.752H105.877L107.697 163.884H111.673ZM115.282 163.576C117.074 162.083 118.502 160.841 119.566 159.852C120.63 158.844 121.517 157.799 122.226 156.716C122.936 155.633 123.29 154.569 123.29 153.524C123.29 152.572 123.066 151.825 122.618 151.284C122.17 150.743 121.48 150.472 120.546 150.472C119.613 150.472 118.894 150.789 118.39 151.424C117.886 152.04 117.625 152.889 117.606 153.972H113.798C113.873 151.732 114.536 150.033 115.786 148.876C117.056 147.719 118.661 147.14 120.602 147.14C122.73 147.14 124.364 147.709 125.502 148.848C126.641 149.968 127.21 151.452 127.21 153.3C127.21 154.756 126.818 156.147 126.034 157.472C125.25 158.797 124.354 159.955 123.346 160.944C122.338 161.915 121.022 163.091 119.398 164.472H127.658V167.72H113.826V164.808L115.282 163.576ZM134.665 162.26C134.814 163.081 135.15 163.716 135.673 164.164C136.214 164.593 136.933 164.808 137.829 164.808C138.986 164.808 139.826 164.332 140.349 163.38C140.871 162.409 141.133 160.785 141.133 158.508C140.703 159.105 140.097 159.572 139.313 159.908C138.547 160.244 137.717 160.412 136.821 160.412C135.626 160.412 134.543 160.169 133.573 159.684C132.621 159.18 131.865 158.443 131.305 157.472C130.745 156.483 130.465 155.288 130.465 153.888C130.465 151.816 131.081 150.173 132.313 148.96C133.545 147.728 135.225 147.112 137.353 147.112C140.003 147.112 141.87 147.961 142.953 149.66C144.054 151.359 144.605 153.916 144.605 157.332C144.605 159.759 144.39 161.747 143.961 163.296C143.55 164.845 142.831 166.021 141.805 166.824C140.797 167.627 139.415 168.028 137.661 168.028C136.279 168.028 135.103 167.767 134.133 167.244C133.162 166.703 132.415 166.003 131.893 165.144C131.389 164.267 131.099 163.305 131.025 162.26H134.665ZM137.633 157.22C138.603 157.22 139.369 156.921 139.929 156.324C140.489 155.727 140.769 154.924 140.769 153.916C140.769 152.815 140.47 151.965 139.873 151.368C139.294 150.752 138.501 150.444 137.493 150.444C136.485 150.444 135.682 150.761 135.085 151.396C134.506 152.012 134.217 152.833 134.217 153.86C134.217 154.849 134.497 155.661 135.057 156.296C135.635 156.912 136.494 157.22 137.633 157.22ZM147.18 151.2V147.588H153.928V168H149.896V151.2H147.18Z" fill="#1A1A1A"/>
<path d="M61.352 190.278V193.54H64.908V194.59H61.352V197.95H65.328V199H60.078V189.228H65.328V190.278H61.352ZM68.8097 192.378V196.9C68.8097 197.273 68.8891 197.539 69.0477 197.698C69.2064 197.847 69.4817 197.922 69.8737 197.922H70.8117V199H69.6637C68.9544 199 68.4224 198.837 68.0677 198.51C67.7131 198.183 67.5357 197.647 67.5357 196.9V192.378H66.5417V191.328H67.5357V189.396H68.8097V191.328H70.8117V192.378H68.8097ZM76.1633 191.188C76.742 191.188 77.2647 191.314 77.7313 191.566C78.198 191.809 78.562 192.177 78.8233 192.672C79.094 193.167 79.2293 193.769 79.2293 194.478V199H77.9693V194.66C77.9693 193.895 77.778 193.311 77.3953 192.91C77.0127 192.499 76.49 192.294 75.8273 192.294C75.1553 192.294 74.6187 192.504 74.2173 192.924C73.8253 193.344 73.6293 193.955 73.6293 194.758V199H72.3553V188.64H73.6293V192.42C73.8813 192.028 74.2267 191.725 74.6653 191.51C75.1133 191.295 75.6127 191.188 76.1633 191.188ZM88.3104 194.87C88.3104 195.113 88.2964 195.369 88.2684 195.64H82.1364C82.1831 196.396 82.4398 196.989 82.9064 197.418C83.3824 197.838 83.9564 198.048 84.6284 198.048C85.1791 198.048 85.6364 197.922 86.0004 197.67C86.3738 197.409 86.6351 197.063 86.7844 196.634H88.1564C87.9511 197.371 87.5404 197.973 86.9244 198.44C86.3084 198.897 85.5431 199.126 84.6284 199.126C83.9004 199.126 83.2471 198.963 82.6684 198.636C82.0991 198.309 81.6511 197.847 81.3244 197.25C80.9978 196.643 80.8344 195.943 80.8344 195.15C80.8344 194.357 80.9931 193.661 81.3104 193.064C81.6278 192.467 82.0711 192.009 82.6404 191.692C83.2191 191.365 83.8818 191.202 84.6284 191.202C85.3564 191.202 86.0004 191.361 86.5604 191.678C87.1204 191.995 87.5498 192.434 87.8484 192.994C88.1564 193.545 88.3104 194.17 88.3104 194.87ZM86.9944 194.604C86.9944 194.119 86.8871 193.703 86.6724 193.358C86.4578 193.003 86.1638 192.737 85.7904 192.56C85.4264 192.373 85.0204 192.28 84.5724 192.28C83.9284 192.28 83.3778 192.485 82.9204 192.896C82.4724 193.307 82.2158 193.876 82.1504 194.604H86.9944ZM91.2661 192.574C91.4901 192.135 91.8074 191.795 92.2181 191.552C92.6381 191.309 93.1467 191.188 93.7441 191.188V192.504H93.4081C91.9801 192.504 91.2661 193.279 91.2661 194.828V199H89.9921V191.328H91.2661V192.574ZM102.215 194.87C102.215 195.113 102.201 195.369 102.173 195.64H96.0407C96.0874 196.396 96.3441 196.989 96.8107 197.418C97.2867 197.838 97.8607 198.048 98.5327 198.048C99.0834 198.048 99.5407 197.922 99.9047 197.67C100.278 197.409 100.539 197.063 100.689 196.634H102.061C101.855 197.371 101.445 197.973 100.829 198.44C100.213 198.897 99.4474 199.126 98.5327 199.126C97.8047 199.126 97.1514 198.963 96.5727 198.636C96.0034 198.309 95.5554 197.847 95.2287 197.25C94.9021 196.643 94.7387 195.943 94.7387 195.15C94.7387 194.357 94.8974 193.661 95.2147 193.064C95.5321 192.467 95.9754 192.009 96.5447 191.692C97.1234 191.365 97.7861 191.202 98.5327 191.202C99.2607 191.202 99.9047 191.361 100.465 191.678C101.025 191.995 101.454 192.434 101.753 192.994C102.061 193.545 102.215 194.17 102.215 194.87ZM100.899 194.604C100.899 194.119 100.791 193.703 100.577 193.358C100.362 193.003 100.068 192.737 99.6947 192.56C99.3307 192.373 98.9247 192.28 98.4767 192.28C97.8327 192.28 97.2821 192.485 96.8247 192.896C96.3767 193.307 96.1201 193.876 96.0547 194.604H100.899ZM110.7 191.328V199H109.426V197.866C109.184 198.258 108.843 198.566 108.404 198.79C107.975 199.005 107.499 199.112 106.976 199.112C106.379 199.112 105.842 198.991 105.366 198.748C104.89 198.496 104.512 198.123 104.232 197.628C103.962 197.133 103.826 196.531 103.826 195.822V191.328H105.086V195.654C105.086 196.41 105.278 196.993 105.66 197.404C106.043 197.805 106.566 198.006 107.228 198.006C107.91 198.006 108.446 197.796 108.838 197.376C109.23 196.956 109.426 196.345 109.426 195.542V191.328H110.7ZM122.077 191.188C122.675 191.188 123.207 191.314 123.673 191.566C124.14 191.809 124.509 192.177 124.779 192.672C125.05 193.167 125.185 193.769 125.185 194.478V199H123.925V194.66C123.925 193.895 123.734 193.311 123.351 192.91C122.978 192.499 122.469 192.294 121.825 192.294C121.163 192.294 120.635 192.509 120.243 192.938C119.851 193.358 119.655 193.969 119.655 194.772V199H118.395V194.66C118.395 193.895 118.204 193.311 117.821 192.91C117.448 192.499 116.939 192.294 116.295 192.294C115.633 192.294 115.105 192.509 114.713 192.938C114.321 193.358 114.125 193.969 114.125 194.772V199H112.851V191.328H114.125V192.434C114.377 192.033 114.713 191.725 115.133 191.51C115.563 191.295 116.034 191.188 116.547 191.188C117.191 191.188 117.761 191.333 118.255 191.622C118.75 191.911 119.119 192.336 119.361 192.896C119.576 192.355 119.931 191.935 120.425 191.636C120.92 191.337 121.471 191.188 122.077 191.188ZM136.328 193.33V194.408H130.742V193.33H136.328ZM143.725 190.278V193.54H147.281V194.59H143.725V197.95H147.701V199H142.451V189.228H147.701V190.278H143.725ZM155.635 189.242V190.278H152.975V199H151.701V190.278H149.027V189.242H155.635ZM164.721 189.242V199H163.447V194.576H158.477V199H157.203V189.242H158.477V193.526H163.447V189.242H164.721Z" fill="#9E9E9E"/>
<rect x="59" y="61" width="52" height="52" rx="10" fill="#6154F0"/>
<path d="M81.7701 89.43L83.3801 90.15C84.4101 90.61 85.5901 90.61 86.6301 90.15L88.2401 89.43C89.6801 88.79 91.0101 90.53 90.0101 91.75L86.5501 95.98C85.7001 97.02 84.3101 97.02 83.4501 95.98L80.0001 91.75C78.9901 90.53 80.3201 88.79 81.7701 89.43Z" fill="white"/>
<path d="M81.57 86.67C81.27 86.89 81.31 87.35 81.65 87.52L84 88.69C84.55 88.97 85.44 88.97 85.98 88.69L88.33 87.52C88.66 87.35 88.7 86.9 88.41 86.67L85.3 84.33C85.12 84.2 84.88 84.2 84.7 84.33L81.57 86.67Z" fill="white"/>
<path d="M90.8801 83.24L86.7101 78.04C86.6301 77.94 86.5401 77.85 86.4501 77.76C86.1901 77.51 85.8201 77.74 85.8201 78.1V82.4C85.8201 82.56 85.8901 82.71 86.0201 82.8L90.1701 85.92L90.3501 86.05C90.5301 86.18 90.7801 86.18 90.9301 86.02C91.6301 85.26 91.6201 84.16 90.8801 83.24Z" fill="white"/>
<path d="M79.1101 83.33L83.2601 78.05C83.3401 77.95 83.4201 77.86 83.5101 77.77C83.7701 77.52 84.1401 77.74 84.1401 78.11V82.48C84.1401 82.64 84.0701 82.78 83.9401 82.88L79.8101 86.05L79.6401 86.18C79.4601 86.31 79.2101 86.31 79.0501 86.14C78.3701 85.37 78.3801 84.27 79.1101 83.33Z" fill="white"/>
<defs>
<filter id="filter0_d_2301_576" x="0" y="0" width="318" height="271" filterUnits="userSpaceOnUse" color-interpolation-filters="sRGB">
<feFlood flood-opacity="0" result="BackgroundImageFix"/>
<feColorMatrix in="SourceAlpha" type="matrix" values="0 0 0 0 0 0 0 0 0 0 0 0 0 0 0 0 0 0 127 0" result="hardAlpha"/>
<feOffset dx="4" dy="4"/>
<feGaussianBlur stdDeviation="16.5"/>
<feComposite in2="hardAlpha" operator="out"/>
<feColorMatrix type="matrix" values="0 0 0 0 0 0 0 0 0 0 0 0 0 0 0 0 0 0 0.05 0"/>
<feBlend mode="normal" in2="BackgroundImageFix" result="effect1_dropShadow_2301_576"/>
<feBlend mode="normal" in="SourceGraphic" in2="effect1_dropShadow_2301_576" result="shape"/>
</filter>
</defs>
</svg>
