<svg width="318" height="271" viewBox="0 0 318 271" fill="none" xmlns="http://www.w3.org/2000/svg">
<g filter="url(#filter0_d_2301_560)">
<rect width="252" height="205" rx="20" transform="matrix(-1 0 0 1 281 29)" fill="white"/>
</g>
<path d="M186.01 87.4851L183.602 85.0776L182.132 83.6001C181.51 82.9776 180.497 82.9776 179.875 83.6001L175.99 87.4851C175.48 87.9951 175.847 88.8651 176.56 88.8651H180.767H185.44C186.16 88.8651 186.52 87.9951 186.01 87.4851Z" fill="#1ECB4F"/>
<path d="M208.568 86.618H205.74V89.516H204.256V86.618H201.428V85.274H204.256V82.376H205.74V85.274H208.568V86.618ZM210.834 85.764C210.834 84.1493 211.105 82.8893 211.646 81.984C212.197 81.0693 213.139 80.612 214.474 80.612C215.809 80.612 216.747 81.0693 217.288 81.984C217.839 82.8893 218.114 84.1493 218.114 85.764C218.114 87.3973 217.839 88.676 217.288 89.6C216.747 90.5147 215.809 90.972 214.474 90.972C213.139 90.972 212.197 90.5147 211.646 89.6C211.105 88.676 210.834 87.3973 210.834 85.764ZM216.546 85.764C216.546 85.008 216.495 84.3687 216.392 83.846C216.299 83.3233 216.103 82.8987 215.804 82.572C215.505 82.236 215.062 82.068 214.474 82.068C213.886 82.068 213.443 82.236 213.144 82.572C212.845 82.8987 212.645 83.3233 212.542 83.846C212.449 84.3687 212.402 85.008 212.402 85.764C212.402 86.548 212.449 87.206 212.542 87.738C212.635 88.27 212.831 88.6993 213.13 89.026C213.438 89.3527 213.886 89.516 214.474 89.516C215.062 89.516 215.505 89.3527 215.804 89.026C216.112 88.6993 216.313 88.27 216.406 87.738C216.499 87.206 216.546 86.548 216.546 85.764ZM220.657 91.098C220.368 91.098 220.125 91 219.929 90.804C219.733 90.608 219.635 90.3653 219.635 90.076C219.635 89.7867 219.733 89.544 219.929 89.348C220.125 89.152 220.368 89.054 220.657 89.054C220.937 89.054 221.175 89.152 221.371 89.348C221.567 89.544 221.665 89.7867 221.665 90.076C221.665 90.3653 221.567 90.608 221.371 90.804C221.175 91 220.937 91.098 220.657 91.098ZM224.062 88.83C224.958 88.0553 225.663 87.4207 226.176 86.926C226.699 86.422 227.133 85.8993 227.478 85.358C227.823 84.8167 227.996 84.2753 227.996 83.734C227.996 83.174 227.861 82.7353 227.59 82.418C227.329 82.1007 226.913 81.942 226.344 81.942C225.793 81.942 225.364 82.1193 225.056 82.474C224.757 82.8193 224.599 83.286 224.58 83.874H223.04C223.068 82.81 223.385 81.998 223.992 81.438C224.608 80.8687 225.387 80.584 226.33 80.584C227.347 80.584 228.141 80.864 228.71 81.424C229.289 81.984 229.578 82.7307 229.578 83.664C229.578 84.336 229.405 84.9847 229.06 85.61C228.724 86.226 228.318 86.7813 227.842 87.276C227.375 87.7613 226.778 88.326 226.05 88.97L225.42 89.53H229.858V90.86H223.054V89.698L224.062 88.83ZM237.84 82.166H233.15V84.952C233.346 84.6907 233.635 84.4713 234.018 84.294C234.41 84.1167 234.825 84.028 235.264 84.028C236.048 84.028 236.683 84.196 237.168 84.532C237.663 84.868 238.013 85.2927 238.218 85.806C238.433 86.3193 238.54 86.8607 238.54 87.43C238.54 88.1207 238.405 88.7367 238.134 89.278C237.873 89.81 237.476 90.23 236.944 90.538C236.421 90.846 235.777 91 235.012 91C233.995 91 233.178 90.748 232.562 90.244C231.946 89.74 231.577 89.0727 231.456 88.242H233.01C233.113 88.6807 233.341 89.0307 233.696 89.292C234.051 89.544 234.494 89.67 235.026 89.67C235.689 89.67 236.183 89.4693 236.51 89.068C236.846 88.6667 237.014 88.1347 237.014 87.472C237.014 86.8 236.846 86.2867 236.51 85.932C236.174 85.568 235.679 85.386 235.026 85.386C234.569 85.386 234.181 85.5027 233.864 85.736C233.556 85.96 233.332 86.268 233.192 86.66H231.68V80.766H237.84V82.166ZM239.949 83.258C239.949 82.5767 240.145 82.0447 240.537 81.662C240.939 81.27 241.452 81.074 242.077 81.074C242.703 81.074 243.211 81.27 243.603 81.662C244.005 82.0447 244.205 82.5767 244.205 83.258C244.205 83.9393 244.005 84.476 243.603 84.868C243.211 85.26 242.703 85.456 242.077 85.456C241.452 85.456 240.939 85.26 240.537 84.868C240.145 84.476 239.949 83.9393 239.949 83.258ZM248.489 81.256L242.903 91H241.335L246.921 81.256H248.489ZM242.077 82.04C241.489 82.04 241.195 82.446 241.195 83.258C241.195 84.0793 241.489 84.49 242.077 84.49C242.357 84.49 242.572 84.392 242.721 84.196C242.88 83.9907 242.959 83.678 242.959 83.258C242.959 82.446 242.665 82.04 242.077 82.04ZM245.647 88.984C245.647 88.3027 245.843 87.7707 246.235 87.388C246.637 86.996 247.15 86.8 247.775 86.8C248.391 86.8 248.895 86.996 249.287 87.388C249.689 87.7707 249.889 88.3027 249.889 88.984C249.889 89.6653 249.689 90.202 249.287 90.594C248.895 90.986 248.391 91.182 247.775 91.182C247.15 91.182 246.637 90.986 246.235 90.594C245.843 90.202 245.647 89.6653 245.647 88.984ZM247.761 87.766C247.173 87.766 246.879 88.172 246.879 88.984C246.879 89.796 247.173 90.202 247.761 90.202C248.349 90.202 248.643 89.796 248.643 88.984C248.643 88.172 248.349 87.766 247.761 87.766Z" fill="#1ECB4F"/>
<path d="M74.876 162.372C74.876 163.343 74.624 164.257 74.12 165.116C73.6347 165.956 72.9067 166.656 71.936 167.216C70.984 167.757 69.8547 168.075 68.548 168.168V170.436H66.756V168.14C64.8893 167.972 63.3867 167.412 62.248 166.46C61.1093 165.489 60.5213 164.183 60.484 162.54H64.684C64.796 163.884 65.4867 164.696 66.756 164.976V159.628C65.412 159.292 64.3293 158.956 63.508 158.62C62.6867 158.284 61.9773 157.743 61.38 156.996C60.7827 156.249 60.484 155.232 60.484 153.944C60.484 152.32 61.0627 150.995 62.22 149.968C63.396 148.941 64.908 148.353 66.756 148.204V145.936H68.548V148.204C70.34 148.353 71.768 148.895 72.832 149.828C73.9147 150.761 74.5213 152.049 74.652 153.692H70.424C70.368 153.151 70.172 152.684 69.836 152.292C69.5187 151.881 69.0893 151.592 68.548 151.424V156.716C69.948 157.071 71.0493 157.416 71.852 157.752C72.6733 158.069 73.3827 158.601 73.98 159.348C74.5773 160.076 74.876 161.084 74.876 162.372ZM64.572 153.748C64.572 154.364 64.7587 154.868 65.132 155.26C65.5053 155.633 66.0467 155.941 66.756 156.184V151.34C66.084 151.433 65.552 151.685 65.16 152.096C64.768 152.507 64.572 153.057 64.572 153.748ZM68.548 165.032C69.2573 164.901 69.808 164.612 70.2 164.164C70.6107 163.716 70.816 163.175 70.816 162.54C70.816 161.924 70.62 161.429 70.228 161.056C69.836 160.683 69.276 160.375 68.548 160.132V165.032ZM78.6363 164.024V160.944L87.7923 147.84H92.3563V160.608H94.8203V164.024H92.3563V168H88.4363V164.024H78.6363ZM88.6883 152.04L82.9483 160.608H88.6883V152.04ZM97.316 157.528C97.316 154.299 97.8947 151.769 99.052 149.94C100.228 148.111 102.169 147.196 104.876 147.196C107.583 147.196 109.515 148.111 110.672 149.94C111.848 151.769 112.436 154.299 112.436 157.528C112.436 160.776 111.848 163.324 110.672 165.172C109.515 167.02 107.583 167.944 104.876 167.944C102.169 167.944 100.228 167.02 99.052 165.172C97.8947 163.324 97.316 160.776 97.316 157.528ZM108.572 157.528C108.572 156.147 108.479 154.989 108.292 154.056C108.124 153.104 107.769 152.329 107.228 151.732C106.705 151.135 105.921 150.836 104.876 150.836C103.831 150.836 103.037 151.135 102.496 151.732C101.973 152.329 101.619 153.104 101.432 154.056C101.264 154.989 101.18 156.147 101.18 157.528C101.18 158.947 101.264 160.141 101.432 161.112C101.6 162.064 101.955 162.839 102.496 163.436C103.037 164.015 103.831 164.304 104.876 164.304C105.921 164.304 106.715 164.015 107.256 163.436C107.797 162.839 108.152 162.064 108.32 161.112C108.488 160.141 108.572 158.947 108.572 157.528ZM120.15 163.884L116.874 171.752H114.354L116.174 163.884H120.15ZM123.759 163.576C125.551 162.083 126.979 160.841 128.043 159.852C129.107 158.844 129.994 157.799 130.703 156.716C131.412 155.633 131.767 154.569 131.767 153.524C131.767 152.572 131.543 151.825 131.095 151.284C130.647 150.743 129.956 150.472 129.023 150.472C128.09 150.472 127.371 150.789 126.867 151.424C126.363 152.04 126.102 152.889 126.083 153.972H122.275C122.35 151.732 123.012 150.033 124.263 148.876C125.532 147.719 127.138 147.14 129.079 147.14C131.207 147.14 132.84 147.709 133.979 148.848C135.118 149.968 135.687 151.452 135.687 153.3C135.687 154.756 135.295 156.147 134.511 157.472C133.727 158.797 132.831 159.955 131.823 160.944C130.815 161.915 129.499 163.091 127.875 164.472H136.135V167.72H122.303V164.808L123.759 163.576ZM143.141 162.26C143.29 163.081 143.626 163.716 144.149 164.164C144.69 164.593 145.409 164.808 146.305 164.808C147.462 164.808 148.302 164.332 148.825 163.38C149.348 162.409 149.609 160.785 149.609 158.508C149.18 159.105 148.573 159.572 147.789 159.908C147.024 160.244 146.193 160.412 145.297 160.412C144.102 160.412 143.02 160.169 142.049 159.684C141.097 159.18 140.341 158.443 139.781 157.472C139.221 156.483 138.941 155.288 138.941 153.888C138.941 151.816 139.557 150.173 140.789 148.96C142.021 147.728 143.701 147.112 145.829 147.112C148.48 147.112 150.346 147.961 151.429 149.66C152.53 151.359 153.081 153.916 153.081 157.332C153.081 159.759 152.866 161.747 152.437 163.296C152.026 164.845 151.308 166.021 150.281 166.824C149.273 167.627 147.892 168.028 146.137 168.028C144.756 168.028 143.58 167.767 142.609 167.244C141.638 166.703 140.892 166.003 140.369 165.144C139.865 164.267 139.576 163.305 139.501 162.26H143.141ZM146.109 157.22C147.08 157.22 147.845 156.921 148.405 156.324C148.965 155.727 149.245 154.924 149.245 153.916C149.245 152.815 148.946 151.965 148.349 151.368C147.77 150.752 146.977 150.444 145.969 150.444C144.961 150.444 144.158 150.761 143.561 151.396C142.982 152.012 142.693 152.833 142.693 153.86C142.693 154.849 142.973 155.661 143.533 156.296C144.112 156.912 144.97 157.22 146.109 157.22ZM155.656 151.2V147.588H162.404V168H158.372V151.2H155.656Z" fill="#1A1A1A"/>
<path d="M64.964 193.974C65.3187 194.03 65.6407 194.175 65.93 194.408C66.2287 194.641 66.462 194.931 66.63 195.276C66.8073 195.621 66.896 195.99 66.896 196.382C66.896 196.877 66.77 197.325 66.518 197.726C66.266 198.118 65.8973 198.431 65.412 198.664C64.936 198.888 64.3713 199 63.718 199H60.078V189.242H63.578C64.2407 189.242 64.8053 189.354 65.272 189.578C65.7387 189.793 66.0887 190.087 66.322 190.46C66.5553 190.833 66.672 191.253 66.672 191.72C66.672 192.299 66.5133 192.779 66.196 193.162C65.888 193.535 65.4773 193.806 64.964 193.974ZM61.352 193.456H63.494C64.0913 193.456 64.5533 193.316 64.88 193.036C65.2067 192.756 65.37 192.369 65.37 191.874C65.37 191.379 65.2067 190.992 64.88 190.712C64.5533 190.432 64.082 190.292 63.466 190.292H61.352V193.456ZM63.606 197.95C64.2407 197.95 64.7353 197.801 65.09 197.502C65.4447 197.203 65.622 196.788 65.622 196.256C65.622 195.715 65.4353 195.29 65.062 194.982C64.6887 194.665 64.1893 194.506 63.564 194.506H61.352V197.95H63.606ZM69.3219 190.082C69.0793 190.082 68.8739 189.998 68.7059 189.83C68.5379 189.662 68.4539 189.457 68.4539 189.214C68.4539 188.971 68.5379 188.766 68.7059 188.598C68.8739 188.43 69.0793 188.346 69.3219 188.346C69.5553 188.346 69.7513 188.43 69.9099 188.598C70.0779 188.766 70.1619 188.971 70.1619 189.214C70.1619 189.457 70.0779 189.662 69.9099 189.83C69.7513 189.998 69.5553 190.082 69.3219 190.082ZM69.9379 191.328V199H68.6639V191.328H69.9379ZM73.6633 192.378V196.9C73.6633 197.273 73.7426 197.539 73.9013 197.698C74.0599 197.847 74.3353 197.922 74.7272 197.922H75.6653V199H74.5173C73.8079 199 73.2759 198.837 72.9213 198.51C72.5666 198.183 72.3893 197.647 72.3893 196.9V192.378H71.3953V191.328H72.3893V189.396H73.6633V191.328H75.6653V192.378H73.6633ZM76.7329 195.15C76.7329 194.357 76.8915 193.666 77.2089 193.078C77.5262 192.481 77.9649 192.019 78.5249 191.692C79.0942 191.365 79.7429 191.202 80.4709 191.202C81.4135 191.202 82.1882 191.431 82.7949 191.888C83.4109 192.345 83.8169 192.98 84.0129 193.792H82.6409C82.5102 193.325 82.2535 192.957 81.8709 192.686C81.4975 192.415 81.0309 192.28 80.4709 192.28C79.7429 192.28 79.1549 192.532 78.7069 193.036C78.2589 193.531 78.0349 194.235 78.0349 195.15C78.0349 196.074 78.2589 196.788 78.7069 197.292C79.1549 197.796 79.7429 198.048 80.4709 198.048C81.0309 198.048 81.4975 197.917 81.8709 197.656C82.2442 197.395 82.5009 197.021 82.6409 196.536H84.0129C83.8075 197.32 83.3969 197.95 82.7809 198.426C82.1649 198.893 81.3949 199.126 80.4709 199.126C79.7429 199.126 79.0942 198.963 78.5249 198.636C77.9649 198.309 77.5262 197.847 77.2089 197.25C76.8915 196.653 76.7329 195.953 76.7329 195.15ZM89.0588 199.126C88.3401 199.126 87.6868 198.963 87.0988 198.636C86.5201 198.309 86.0628 197.847 85.7268 197.25C85.4001 196.643 85.2368 195.943 85.2368 195.15C85.2368 194.366 85.4048 193.675 85.7408 193.078C86.0861 192.471 86.5528 192.009 87.1408 191.692C87.7288 191.365 88.3868 191.202 89.1148 191.202C89.8428 191.202 90.5008 191.365 91.0888 191.692C91.6768 192.009 92.1388 192.467 92.4748 193.064C92.8201 193.661 92.9928 194.357 92.9928 195.15C92.9928 195.943 92.8154 196.643 92.4608 197.25C92.1154 197.847 91.6441 198.309 91.0468 198.636C90.4494 198.963 89.7868 199.126 89.0588 199.126ZM89.0588 198.006C89.5161 198.006 89.9454 197.899 90.3468 197.684C90.7481 197.469 91.0701 197.147 91.3128 196.718C91.5648 196.289 91.6908 195.766 91.6908 195.15C91.6908 194.534 91.5694 194.011 91.3268 193.582C91.0841 193.153 90.7668 192.835 90.3748 192.63C89.9828 192.415 89.5581 192.308 89.1008 192.308C88.6341 192.308 88.2048 192.415 87.8128 192.63C87.4301 192.835 87.1221 193.153 86.8888 193.582C86.6554 194.011 86.5388 194.534 86.5388 195.15C86.5388 195.775 86.6508 196.303 86.8748 196.732C87.1081 197.161 87.4161 197.483 87.7988 197.698C88.1814 197.903 88.6014 198.006 89.0588 198.006ZM95.3258 190.082C95.0832 190.082 94.8778 189.998 94.7098 189.83C94.5418 189.662 94.4578 189.457 94.4578 189.214C94.4578 188.971 94.5418 188.766 94.7098 188.598C94.8778 188.43 95.0832 188.346 95.3258 188.346C95.5592 188.346 95.7552 188.43 95.9138 188.598C96.0818 188.766 96.1658 188.971 96.1658 189.214C96.1658 189.457 96.0818 189.662 95.9138 189.83C95.7552 189.998 95.5592 190.082 95.3258 190.082ZM95.9418 191.328V199H94.6678V191.328H95.9418ZM101.851 191.188C102.784 191.188 103.54 191.473 104.119 192.042C104.698 192.602 104.987 193.414 104.987 194.478V199H103.727V194.66C103.727 193.895 103.536 193.311 103.153 192.91C102.77 192.499 102.248 192.294 101.585 192.294C100.913 192.294 100.376 192.504 99.9752 192.924C99.5832 193.344 99.3872 193.955 99.3872 194.758V199H98.1132V191.328H99.3872V192.42C99.6392 192.028 99.9798 191.725 100.409 191.51C100.848 191.295 101.328 191.188 101.851 191.188ZM116.121 193.33V194.408H110.535V193.33H116.121ZM127.13 193.974C127.485 194.03 127.807 194.175 128.096 194.408C128.395 194.641 128.628 194.931 128.796 195.276C128.973 195.621 129.062 195.99 129.062 196.382C129.062 196.877 128.936 197.325 128.684 197.726C128.432 198.118 128.063 198.431 127.578 198.664C127.102 198.888 126.537 199 125.884 199H122.244V189.242H125.744C126.407 189.242 126.971 189.354 127.438 189.578C127.905 189.793 128.255 190.087 128.488 190.46C128.721 190.833 128.838 191.253 128.838 191.72C128.838 192.299 128.679 192.779 128.362 193.162C128.054 193.535 127.643 193.806 127.13 193.974ZM123.518 193.456H125.66C126.257 193.456 126.719 193.316 127.046 193.036C127.373 192.756 127.536 192.369 127.536 191.874C127.536 191.379 127.373 190.992 127.046 190.712C126.719 190.432 126.248 190.292 125.632 190.292H123.518V193.456ZM125.772 197.95C126.407 197.95 126.901 197.801 127.256 197.502C127.611 197.203 127.788 196.788 127.788 196.256C127.788 195.715 127.601 195.29 127.228 194.982C126.855 194.665 126.355 194.506 125.73 194.506H123.518V197.95H125.772ZM136.836 189.242V190.278H134.176V199H132.902V190.278H130.228V189.242H136.836ZM137.928 194.114C137.928 193.162 138.143 192.308 138.572 191.552C139.002 190.787 139.585 190.189 140.322 189.76C141.069 189.331 141.895 189.116 142.8 189.116C143.864 189.116 144.793 189.373 145.586 189.886C146.38 190.399 146.958 191.127 147.322 192.07H145.796C145.526 191.482 145.134 191.029 144.62 190.712C144.116 190.395 143.51 190.236 142.8 190.236C142.119 190.236 141.508 190.395 140.966 190.712C140.425 191.029 140 191.482 139.692 192.07C139.384 192.649 139.23 193.33 139.23 194.114C139.23 194.889 139.384 195.57 139.692 196.158C140 196.737 140.425 197.185 140.966 197.502C141.508 197.819 142.119 197.978 142.8 197.978C143.51 197.978 144.116 197.824 144.62 197.516C145.134 197.199 145.526 196.746 145.796 196.158H147.322C146.958 197.091 146.38 197.815 145.586 198.328C144.793 198.832 143.864 199.084 142.8 199.084C141.895 199.084 141.069 198.874 140.322 198.454C139.585 198.025 139.002 197.432 138.572 196.676C138.143 195.92 137.928 195.066 137.928 194.114Z" fill="#9E9E9E"/>
<rect x="59" y="61" width="52" height="52" rx="10" fill="#FABC1E"/>
<path d="M87.97 87.75H87.2H82.53V90.58H83.84H87.97C88.92 90.58 89.7 89.94 89.7 89.16C89.7 88.38 88.92 87.75 87.97 87.75Z" fill="white"/>
<path d="M85 77C79.48 77 75 81.48 75 87C75 92.52 79.48 97 85 97C90.52 97 95 92.52 95 87C95 81.48 90.52 77 85 77ZM87.97 92.08H86.32V93.5C86.32 93.91 85.98 94.25 85.57 94.25C85.16 94.25 84.82 93.91 84.82 93.5V92.08H83.84H83.61V93.5C83.61 93.91 83.27 94.25 82.86 94.25C82.45 94.25 82.11 93.91 82.11 93.5V92.08H81.78H80.05C79.64 92.08 79.3 91.74 79.3 91.33C79.3 90.92 79.64 90.58 80.05 90.58H81.03V87V83.42H80.05C79.64 83.42 79.3 83.08 79.3 82.67C79.3 82.26 79.64 81.92 80.05 81.92H81.78H82.11V80.5C82.11 80.09 82.45 79.75 82.86 79.75C83.27 79.75 83.61 80.09 83.61 80.5V81.92H83.84H84.82V80.5C84.82 80.09 85.16 79.75 85.57 79.75C85.98 79.75 86.32 80.09 86.32 80.5V81.92H87.2C88.75 81.92 90.12 83.28 90.12 84.84C90.12 85.51 89.88 86.12 89.5 86.62C90.51 87.11 91.2 88.07 91.2 89.18C91.2 90.77 89.75 92.08 87.97 92.08Z" fill="white"/>
<path d="M88.62 84.83C88.62 84.17 88 83.41 87.2 83.41H83.84H82.53V86.24H87.2C87.98 86.25 88.62 85.61 88.62 84.83Z" fill="white"/>
<defs>
<filter id="filter0_d_2301_560" x="0" y="0" width="318" height="271" filterUnits="userSpaceOnUse" color-interpolation-filters="sRGB">
<feFlood flood-opacity="0" result="BackgroundImageFix"/>
<feColorMatrix in="SourceAlpha" type="matrix" values="0 0 0 0 0 0 0 0 0 0 0 0 0 0 0 0 0 0 127 0" result="hardAlpha"/>
<feOffset dx="4" dy="4"/>
<feGaussianBlur stdDeviation="16.5"/>
<feComposite in2="hardAlpha" operator="out"/>
<feColorMatrix type="matrix" values="0 0 0 0 0 0 0 0 0 0 0 0 0 0 0 0 0 0 0.05 0"/>
<feBlend mode="normal" in2="BackgroundImageFix" result="effect1_dropShadow_2301_560"/>
<feBlend mode="normal" in="SourceGraphic" in2="effect1_dropShadow_2301_560" result="shape"/>
</filter>
</defs>
</svg>
