<svg width="1098" height="73" viewBox="0 0 1098 73" fill="none" xmlns="http://www.w3.org/2000/svg">
<rect x="0.5" y="1.5" width="354" height="39" rx="9.5" stroke="#E4E4E4"/>
<path d="M18.576 25.084C18.024 25.084 17.528 24.988 17.088 24.796C16.656 24.596 16.316 24.324 16.068 23.98C15.82 23.628 15.692 23.224 15.684 22.768H16.848C16.888 23.16 17.048 23.492 17.328 23.764C17.616 24.028 18.032 24.16 18.576 24.16C19.096 24.16 19.504 24.032 19.8 23.776C20.104 23.512 20.256 23.176 20.256 22.768C20.256 22.448 20.168 22.188 19.992 21.988C19.816 21.788 19.596 21.636 19.332 21.532C19.068 21.428 18.712 21.316 18.264 21.196C17.712 21.052 17.268 20.908 16.932 20.764C16.604 20.62 16.32 20.396 16.08 20.092C15.848 19.78 15.732 19.364 15.732 18.844C15.732 18.388 15.848 17.984 16.08 17.632C16.312 17.28 16.636 17.008 17.052 16.816C17.476 16.624 17.96 16.528 18.504 16.528C19.288 16.528 19.928 16.724 20.424 17.116C20.928 17.508 21.212 18.028 21.276 18.676H20.076C20.036 18.356 19.868 18.076 19.572 17.836C19.276 17.588 18.884 17.464 18.396 17.464C17.94 17.464 17.568 17.584 17.28 17.824C16.992 18.056 16.848 18.384 16.848 18.808C16.848 19.112 16.932 19.36 17.1 19.552C17.276 19.744 17.488 19.892 17.736 19.996C17.992 20.092 18.348 20.204 18.804 20.332C19.356 20.484 19.8 20.636 20.136 20.788C20.472 20.932 20.76 21.16 21 21.472C21.24 21.776 21.36 22.192 21.36 22.72C21.36 23.128 21.252 23.512 21.036 23.872C20.82 24.232 20.5 24.524 20.076 24.748C19.652 24.972 19.152 25.084 18.576 25.084ZM28.967 21.46C28.967 21.668 28.955 21.888 28.931 22.12H23.675C23.715 22.768 23.935 23.276 24.335 23.644C24.743 24.004 25.235 24.184 25.811 24.184C26.283 24.184 26.675 24.076 26.987 23.86C27.307 23.636 27.531 23.34 27.659 22.972H28.835C28.659 23.604 28.307 24.12 27.779 24.52C27.251 24.912 26.595 25.108 25.811 25.108C25.187 25.108 24.627 24.968 24.131 24.688C23.643 24.408 23.259 24.012 22.979 23.5C22.699 22.98 22.559 22.38 22.559 21.7C22.559 21.02 22.695 20.424 22.967 19.912C23.239 19.4 23.619 19.008 24.107 18.736C24.603 18.456 25.171 18.316 25.811 18.316C26.435 18.316 26.987 18.452 27.467 18.724C27.947 18.996 28.315 19.372 28.571 19.852C28.835 20.324 28.967 20.86 28.967 21.46ZM27.839 21.232C27.839 20.816 27.747 20.46 27.563 20.164C27.379 19.86 27.127 19.632 26.807 19.48C26.495 19.32 26.147 19.24 25.763 19.24C25.211 19.24 24.739 19.416 24.347 19.768C23.963 20.12 23.743 20.608 23.687 21.232H27.839ZM30.0004 21.688C30.0004 21.016 30.1364 20.428 30.4084 19.924C30.6804 19.412 31.0524 19.016 31.5244 18.736C32.0044 18.456 32.5364 18.316 33.1204 18.316C33.6964 18.316 34.1964 18.44 34.6204 18.688C35.0444 18.936 35.3604 19.248 35.5684 19.624V18.424H36.6724V25H35.5684V23.776C35.3524 24.16 35.0284 24.48 34.5964 24.736C34.1724 24.984 33.6764 25.108 33.1084 25.108C32.5244 25.108 31.9964 24.964 31.5244 24.676C31.0524 24.388 30.6804 23.984 30.4084 23.464C30.1364 22.944 30.0004 22.352 30.0004 21.688ZM35.5684 21.7C35.5684 21.204 35.4684 20.772 35.2684 20.404C35.0684 20.036 34.7964 19.756 34.4524 19.564C34.1164 19.364 33.7444 19.264 33.3364 19.264C32.9284 19.264 32.5564 19.36 32.2204 19.552C31.8844 19.744 31.6164 20.024 31.4164 20.392C31.2164 20.76 31.1164 21.192 31.1164 21.688C31.1164 22.192 31.2164 22.632 31.4164 23.008C31.6164 23.376 31.8844 23.66 32.2204 23.86C32.5564 24.052 32.9284 24.148 33.3364 24.148C33.7444 24.148 34.1164 24.052 34.4524 23.86C34.7964 23.66 35.0684 23.376 35.2684 23.008C35.4684 22.632 35.5684 22.196 35.5684 21.7ZM39.6098 19.492C39.8018 19.116 40.0738 18.824 40.4258 18.616C40.7858 18.408 41.2218 18.304 41.7338 18.304V19.432H41.4458C40.2218 19.432 39.6098 20.096 39.6098 21.424V25H38.5178V18.424H39.6098V19.492ZM42.5863 21.7C42.5863 21.02 42.7223 20.428 42.9943 19.924C43.2663 19.412 43.6423 19.016 44.1223 18.736C44.6103 18.456 45.1663 18.316 45.7903 18.316C46.5983 18.316 47.2623 18.512 47.7823 18.904C48.3103 19.296 48.6583 19.84 48.8263 20.536H47.6503C47.5383 20.136 47.3183 19.82 46.9903 19.588C46.6703 19.356 46.2703 19.24 45.7903 19.24C45.1663 19.24 44.6623 19.456 44.2783 19.888C43.8943 20.312 43.7023 20.916 43.7023 21.7C43.7023 22.492 43.8943 23.104 44.2783 23.536C44.6623 23.968 45.1663 24.184 45.7903 24.184C46.2703 24.184 46.6703 24.072 46.9903 23.848C47.3103 23.624 47.5303 23.304 47.6503 22.888H48.8263C48.6503 23.56 48.2983 24.1 47.7703 24.508C47.2423 24.908 46.5823 25.108 45.7903 25.108C45.1663 25.108 44.6103 24.968 44.1223 24.688C43.6423 24.408 43.2663 24.012 42.9943 23.5C42.7223 22.988 42.5863 22.388 42.5863 21.7ZM53.5474 18.304C54.0434 18.304 54.4914 18.412 54.8914 18.628C55.2914 18.836 55.6034 19.152 55.8274 19.576C56.0594 20 56.1754 20.516 56.1754 21.124V25H55.0954V21.28C55.0954 20.624 54.9314 20.124 54.6034 19.78C54.2754 19.428 53.8274 19.252 53.2594 19.252C52.6834 19.252 52.2234 19.432 51.8794 19.792C51.5434 20.152 51.3754 20.676 51.3754 21.364V25H50.2834V16.12H51.3754V19.36C51.5914 19.024 51.8874 18.764 52.2634 18.58C52.6474 18.396 53.0754 18.304 53.5474 18.304ZM62.4904 19.324V23.2C62.4904 23.52 62.5584 23.748 62.6944 23.884C62.8304 24.012 63.0664 24.076 63.4024 24.076H64.2064V25H63.2224C62.6144 25 62.1584 24.86 61.8544 24.58C61.5504 24.3 61.3984 23.84 61.3984 23.2V19.324H60.5464V18.424H61.3984V16.768H62.4904V18.424H64.2064V19.324H62.4904ZM71.1935 18.424L67.2335 28.096H66.1055L67.4015 24.928L64.7495 18.424H65.9615L68.0255 23.752L70.0655 18.424H71.1935ZM73.3832 19.636C73.5992 19.26 73.9192 18.948 74.3432 18.7C74.7752 18.444 75.2752 18.316 75.8432 18.316C76.4272 18.316 76.9552 18.456 77.4272 18.736C77.9072 19.016 78.2832 19.412 78.5552 19.924C78.8272 20.428 78.9632 21.016 78.9632 21.688C78.9632 22.352 78.8272 22.944 78.5552 23.464C78.2832 23.984 77.9072 24.388 77.4272 24.676C76.9552 24.964 76.4272 25.108 75.8432 25.108C75.2832 25.108 74.7872 24.984 74.3552 24.736C73.9312 24.48 73.6072 24.164 73.3832 23.788V28.12H72.2912V18.424H73.3832V19.636ZM77.8472 21.688C77.8472 21.192 77.7472 20.76 77.5472 20.392C77.3472 20.024 77.0752 19.744 76.7312 19.552C76.3952 19.36 76.0232 19.264 75.6152 19.264C75.2152 19.264 74.8432 19.364 74.4992 19.564C74.1632 19.756 73.8912 20.04 73.6832 20.416C73.4832 20.784 73.3832 21.212 73.3832 21.7C73.3832 22.196 73.4832 22.632 73.6832 23.008C73.8912 23.376 74.1632 23.66 74.4992 23.86C74.8432 24.052 75.2152 24.148 75.6152 24.148C76.0232 24.148 76.3952 24.052 76.7312 23.86C77.0752 23.66 77.3472 23.376 77.5472 23.008C77.7472 22.632 77.8472 22.192 77.8472 21.688ZM86.4006 21.46C86.4006 21.668 86.3886 21.888 86.3646 22.12H81.1086C81.1486 22.768 81.3686 23.276 81.7686 23.644C82.1766 24.004 82.6686 24.184 83.2446 24.184C83.7166 24.184 84.1086 24.076 84.4206 23.86C84.7406 23.636 84.9646 23.34 85.0926 22.972H86.2686C86.0926 23.604 85.7406 24.12 85.2126 24.52C84.6846 24.912 84.0286 25.108 83.2446 25.108C82.6206 25.108 82.0606 24.968 81.5646 24.688C81.0766 24.408 80.6926 24.012 80.4126 23.5C80.1326 22.98 79.9926 22.38 79.9926 21.7C79.9926 21.02 80.1286 20.424 80.4006 19.912C80.6726 19.4 81.0526 19.008 81.5406 18.736C82.0366 18.456 82.6046 18.316 83.2446 18.316C83.8686 18.316 84.4206 18.452 84.9006 18.724C85.3806 18.996 85.7486 19.372 86.0046 19.852C86.2686 20.324 86.4006 20.86 86.4006 21.46ZM85.2726 21.232C85.2726 20.816 85.1806 20.46 84.9966 20.164C84.8126 19.86 84.5606 19.632 84.2406 19.48C83.9286 19.32 83.5806 19.24 83.1966 19.24C82.6446 19.24 82.1726 19.416 81.7806 19.768C81.3966 20.12 81.1766 20.608 81.1206 21.232H85.2726ZM93.9092 25.108C93.2932 25.108 92.7332 24.968 92.2292 24.688C91.7332 24.408 91.3412 24.012 91.0532 23.5C90.7732 22.98 90.6332 22.38 90.6332 21.7C90.6332 21.028 90.7772 20.436 91.0652 19.924C91.3612 19.404 91.7612 19.008 92.2652 18.736C92.7692 18.456 93.3332 18.316 93.9572 18.316C94.5812 18.316 95.1452 18.456 95.6492 18.736C96.1532 19.008 96.5492 19.4 96.8372 19.912C97.1332 20.424 97.2812 21.02 97.2812 21.7C97.2812 22.38 97.1292 22.98 96.8252 23.5C96.5292 24.012 96.1252 24.408 95.6132 24.688C95.1012 24.968 94.5332 25.108 93.9092 25.108ZM93.9092 24.148C94.3012 24.148 94.6692 24.056 95.0132 23.872C95.3572 23.688 95.6332 23.412 95.8412 23.044C96.0572 22.676 96.1652 22.228 96.1652 21.7C96.1652 21.172 96.0612 20.724 95.8532 20.356C95.6452 19.988 95.3732 19.716 95.0372 19.54C94.7012 19.356 94.3372 19.264 93.9452 19.264C93.5452 19.264 93.1772 19.356 92.8412 19.54C92.5132 19.716 92.2492 19.988 92.0492 20.356C91.8492 20.724 91.7492 21.172 91.7492 21.7C91.7492 22.236 91.8452 22.688 92.0372 23.056C92.2372 23.424 92.5012 23.7 92.8292 23.884C93.1572 24.06 93.5172 24.148 93.9092 24.148ZM101.393 19.324H100.013V25H98.921V19.324H98.069V18.424H98.921V17.956C98.921 17.22 99.109 16.684 99.485 16.348C99.869 16.004 100.481 15.832 101.321 15.832V16.744C100.841 16.744 100.501 16.84 100.301 17.032C100.109 17.216 100.013 17.524 100.013 17.956V18.424H101.393V19.324ZM109.537 25L106.957 22.096V25H105.865V16.12H106.957V21.34L109.489 18.424H111.013L107.917 21.7L111.025 25H109.537ZM118.041 21.46C118.041 21.668 118.029 21.888 118.005 22.12H112.749C112.789 22.768 113.009 23.276 113.409 23.644C113.817 24.004 114.309 24.184 114.885 24.184C115.357 24.184 115.749 24.076 116.061 23.86C116.381 23.636 116.605 23.34 116.733 22.972H117.909C117.733 23.604 117.381 24.12 116.853 24.52C116.325 24.912 115.669 25.108 114.885 25.108C114.261 25.108 113.701 24.968 113.205 24.688C112.717 24.408 112.333 24.012 112.053 23.5C111.773 22.98 111.633 22.38 111.633 21.7C111.633 21.02 111.769 20.424 112.041 19.912C112.313 19.4 112.693 19.008 113.181 18.736C113.677 18.456 114.245 18.316 114.885 18.316C115.509 18.316 116.061 18.452 116.541 18.724C117.021 18.996 117.389 19.372 117.645 19.852C117.909 20.324 118.041 20.86 118.041 21.46ZM116.913 21.232C116.913 20.816 116.821 20.46 116.637 20.164C116.453 19.86 116.201 19.632 115.881 19.48C115.569 19.32 115.221 19.24 114.837 19.24C114.285 19.24 113.813 19.416 113.421 19.768C113.037 20.12 112.817 20.608 112.761 21.232H116.913ZM125.147 18.424L121.187 28.096H120.059L121.355 24.928L118.703 18.424H119.915L121.979 23.752L124.019 18.424H125.147ZM135.004 18.424L132.952 25H131.824L130.24 19.78L128.656 25H127.528L125.464 18.424H126.58L128.092 23.944L129.724 18.424H130.84L132.436 23.956L133.924 18.424H135.004ZM138.956 25.108C138.34 25.108 137.78 24.968 137.276 24.688C136.78 24.408 136.388 24.012 136.1 23.5C135.82 22.98 135.68 22.38 135.68 21.7C135.68 21.028 135.824 20.436 136.112 19.924C136.408 19.404 136.808 19.008 137.312 18.736C137.816 18.456 138.38 18.316 139.004 18.316C139.628 18.316 140.192 18.456 140.696 18.736C141.2 19.008 141.596 19.4 141.884 19.912C142.18 20.424 142.328 21.02 142.328 21.7C142.328 22.38 142.176 22.98 141.872 23.5C141.576 24.012 141.172 24.408 140.66 24.688C140.148 24.968 139.58 25.108 138.956 25.108ZM138.956 24.148C139.348 24.148 139.716 24.056 140.06 23.872C140.404 23.688 140.68 23.412 140.888 23.044C141.104 22.676 141.212 22.228 141.212 21.7C141.212 21.172 141.108 20.724 140.9 20.356C140.692 19.988 140.42 19.716 140.084 19.54C139.748 19.356 139.384 19.264 138.992 19.264C138.592 19.264 138.224 19.356 137.888 19.54C137.56 19.716 137.296 19.988 137.096 20.356C136.896 20.724 136.796 21.172 136.796 21.7C136.796 22.236 136.892 22.688 137.084 23.056C137.284 23.424 137.548 23.7 137.876 23.884C138.204 24.06 138.564 24.148 138.956 24.148ZM144.856 19.492C145.048 19.116 145.32 18.824 145.672 18.616C146.032 18.408 146.468 18.304 146.98 18.304V19.432H146.692C145.468 19.432 144.856 20.096 144.856 21.424V25H143.764V18.424H144.856V19.492ZM147.832 21.688C147.832 21.016 147.968 20.428 148.24 19.924C148.512 19.412 148.884 19.016 149.356 18.736C149.836 18.456 150.372 18.316 150.964 18.316C151.476 18.316 151.952 18.436 152.392 18.676C152.832 18.908 153.168 19.216 153.4 19.6V16.12H154.504V25H153.4V23.764C153.184 24.156 152.864 24.48 152.44 24.736C152.016 24.984 151.52 25.108 150.952 25.108C150.368 25.108 149.836 24.964 149.356 24.676C148.884 24.388 148.512 23.984 148.24 23.464C147.968 22.944 147.832 22.352 147.832 21.688ZM153.4 21.7C153.4 21.204 153.3 20.772 153.1 20.404C152.9 20.036 152.628 19.756 152.284 19.564C151.948 19.364 151.576 19.264 151.168 19.264C150.76 19.264 150.388 19.36 150.052 19.552C149.716 19.744 149.448 20.024 149.248 20.392C149.048 20.76 148.948 21.192 148.948 21.688C148.948 22.192 149.048 22.632 149.248 23.008C149.448 23.376 149.716 23.66 150.052 23.86C150.388 24.052 150.76 24.148 151.168 24.148C151.576 24.148 151.948 24.052 152.284 23.86C152.628 23.66 152.9 23.376 153.1 23.008C153.3 22.632 153.4 22.196 153.4 21.7ZM158.678 25.108C158.174 25.108 157.722 25.024 157.322 24.856C156.922 24.68 156.606 24.44 156.374 24.136C156.142 23.824 156.014 23.468 155.99 23.068H157.118C157.15 23.396 157.302 23.664 157.574 23.872C157.854 24.08 158.218 24.184 158.666 24.184C159.082 24.184 159.41 24.092 159.65 23.908C159.89 23.724 160.01 23.492 160.01 23.212C160.01 22.924 159.882 22.712 159.626 22.576C159.37 22.432 158.974 22.292 158.438 22.156C157.95 22.028 157.55 21.9 157.238 21.772C156.934 21.636 156.67 21.44 156.446 21.184C156.23 20.92 156.122 20.576 156.122 20.152C156.122 19.816 156.222 19.508 156.422 19.228C156.622 18.948 156.906 18.728 157.274 18.568C157.642 18.4 158.062 18.316 158.534 18.316C159.262 18.316 159.85 18.5 160.298 18.868C160.746 19.236 160.986 19.74 161.018 20.38H159.926C159.902 20.036 159.762 19.76 159.506 19.552C159.258 19.344 158.922 19.24 158.498 19.24C158.106 19.24 157.794 19.324 157.562 19.492C157.33 19.66 157.214 19.88 157.214 20.152C157.214 20.368 157.282 20.548 157.418 20.692C157.562 20.828 157.738 20.94 157.946 21.028C158.162 21.108 158.458 21.2 158.834 21.304C159.306 21.432 159.69 21.56 159.986 21.688C160.282 21.808 160.534 21.992 160.742 22.24C160.958 22.488 161.07 22.812 161.078 23.212C161.078 23.572 160.978 23.896 160.778 24.184C160.578 24.472 160.294 24.7 159.926 24.868C159.566 25.028 159.15 25.108 158.678 25.108Z" fill="#828282"/>
<path d="M329.625 28.3125C325.387 28.3125 321.938 24.8625 321.938 20.625C321.938 16.3875 325.387 12.9375 329.625 12.9375C333.863 12.9375 337.312 16.3875 337.312 20.625C337.312 24.8625 333.863 28.3125 329.625 28.3125ZM329.625 14.0625C326.003 14.0625 323.062 17.01 323.062 20.625C323.062 24.24 326.003 27.1875 329.625 27.1875C333.247 27.1875 336.188 24.24 336.188 20.625C336.188 17.01 333.247 14.0625 329.625 14.0625Z" fill="#828282"/>
<path d="M337.5 29.0625C337.358 29.0625 337.215 29.01 337.103 28.8975L335.603 27.3975C335.385 27.18 335.385 26.82 335.603 26.6025C335.82 26.385 336.18 26.385 336.398 26.6025L337.898 28.1025C338.115 28.32 338.115 28.68 337.898 28.8975C337.785 29.01 337.643 29.0625 337.5 29.0625Z" fill="#828282"/>
<path d="M816.02 29.53C813.69 29.53 811.36 29.16 809.15 28.42C808.31 28.13 807.67 27.54 807.39 26.77C807.1 26 807.2 25.15 807.66 24.39L808.81 22.48C809.05 22.08 809.27 21.28 809.27 20.81V17.92C809.27 14.2 812.3 11.17 816.02 11.17C819.74 11.17 822.77 14.2 822.77 17.92V20.81C822.77 21.27 822.99 22.08 823.23 22.49L824.37 24.39C824.8 25.11 824.88 25.98 824.59 26.77C824.3 27.56 823.67 28.16 822.88 28.42C820.68 29.16 818.35 29.53 816.02 29.53ZM816.02 12.67C813.13 12.67 810.77 15.02 810.77 17.92V20.81C810.77 21.54 810.47 22.62 810.1 23.25L808.95 25.16C808.73 25.53 808.67 25.92 808.8 26.25C808.92 26.59 809.22 26.85 809.63 26.99C813.81 28.39 818.24 28.39 822.42 26.99C822.78 26.87 823.06 26.6 823.19 26.24C823.32 25.88 823.29 25.49 823.09 25.16L821.94 23.25C821.56 22.6 821.27 21.53 821.27 20.8V17.92C821.27 15.02 818.92 12.67 816.02 12.67Z" fill="#828282"/>
<path d="M817.88 12.9397C817.81 12.9397 817.74 12.9297 817.67 12.9097C817.38 12.8297 817.1 12.7697 816.83 12.7297C815.98 12.6197 815.16 12.6797 814.39 12.9097C814.11 12.9997 813.81 12.9097 813.62 12.6997C813.43 12.4897 813.37 12.1897 813.48 11.9197C813.89 10.8697 814.89 10.1797 816.03 10.1797C817.17 10.1797 818.17 10.8597 818.58 11.9197C818.68 12.1897 818.63 12.4897 818.44 12.6997C818.29 12.8597 818.08 12.9397 817.88 12.9397Z" fill="#828282"/>
<path d="M816.02 31.8096C815.03 31.8096 814.07 31.4096 813.37 30.7096C812.67 30.0096 812.27 29.0496 812.27 28.0596H813.77C813.77 28.6496 814.01 29.2296 814.43 29.6496C814.85 30.0696 815.43 30.3096 816.02 30.3096C817.26 30.3096 818.27 29.2996 818.27 28.0596H819.77C819.77 30.1296 818.09 31.8096 816.02 31.8096Z" fill="#828282"/>
<rect x="946" width="40" height="40" rx="20" fill="#9E9E9E"/>
<path d="M1002.92 28.308C1003.81 28.308 1004.58 28.476 1005.24 28.812C1005.9 29.148 1006.4 29.62 1006.75 30.228C1007.1 30.828 1007.28 31.524 1007.28 32.316C1007.28 32.948 1007.18 33.556 1006.97 34.14C1006.76 34.716 1006.46 35.184 1006.06 35.544C1005.66 35.904 1005.2 36.084 1004.68 36.084C1004.28 36.084 1003.97 35.984 1003.75 35.784C1003.54 35.584 1003.41 35.312 1003.38 34.968C1003.13 35.312 1002.82 35.584 1002.43 35.784C1002.06 35.984 1001.66 36.084 1001.23 36.084C1000.62 36.084 1000.14 35.9 999.792 35.532C999.448 35.156 999.276 34.652 999.276 34.02C999.276 33.42 999.4 32.86 999.648 32.34C999.904 31.82 1000.26 31.404 1000.7 31.092C1001.15 30.772 1001.66 30.612 1002.23 30.612C1002.99 30.612 1003.5 30.9 1003.76 31.476L1003.9 30.732H1004.84L1004.24 34.2C1004.22 34.352 1004.21 34.492 1004.21 34.62C1004.21 35.1 1004.42 35.34 1004.84 35.34C1005.16 35.34 1005.44 35.188 1005.67 34.884C1005.91 34.58 1006.09 34.2 1006.21 33.744C1006.33 33.28 1006.39 32.824 1006.39 32.376C1006.39 31.328 1006.08 30.516 1005.44 29.94C1004.82 29.364 1003.94 29.076 1002.79 29.076C1001.84 29.076 1000.98 29.308 1000.21 29.772C999.452 30.228 998.856 30.856 998.424 31.656C997.992 32.456 997.776 33.34 997.776 34.308C997.768 35.364 998.084 36.176 998.724 36.744C999.364 37.32 1000.25 37.608 1001.39 37.608C1002.14 37.608 1002.8 37.472 1003.38 37.2L1003.52 37.944C1002.81 38.24 1002.03 38.388 1001.17 38.388C1000.32 38.388 999.56 38.224 998.904 37.896C998.256 37.576 997.752 37.112 997.392 36.504C997.04 35.904 996.864 35.204 996.864 34.404C996.864 33.276 997.124 32.248 997.644 31.32C998.164 30.384 998.884 29.648 999.804 29.112C1000.73 28.576 1001.77 28.308 1002.92 28.308ZM1001.56 35.232C1001.92 35.232 1002.25 35.128 1002.55 34.92C1002.86 34.704 1003.1 34.416 1003.27 34.056C1003.45 33.688 1003.54 33.288 1003.54 32.856C1003.54 32.44 1003.42 32.104 1003.19 31.848C1002.96 31.584 1002.64 31.452 1002.23 31.452C1001.84 31.452 1001.5 31.568 1001.21 31.8C1000.92 32.024 1000.7 32.324 1000.54 32.7C1000.38 33.068 1000.3 33.452 1000.3 33.852C1000.3 34.276 1000.4 34.612 1000.62 34.86C1000.84 35.108 1001.15 35.232 1001.56 35.232ZM1010.17 27.12V36H1009.08V27.12H1010.17ZM1011.62 32.688C1011.62 32.016 1011.76 31.428 1012.03 30.924C1012.3 30.412 1012.67 30.016 1013.15 29.736C1013.63 29.456 1014.16 29.316 1014.74 29.316C1015.32 29.316 1015.82 29.44 1016.24 29.688C1016.67 29.936 1016.98 30.248 1017.19 30.624V29.424H1018.29V36H1017.19V34.776C1016.97 35.16 1016.65 35.48 1016.22 35.736C1015.79 35.984 1015.3 36.108 1014.73 36.108C1014.15 36.108 1013.62 35.964 1013.15 35.676C1012.67 35.388 1012.3 34.984 1012.03 34.464C1011.76 33.944 1011.62 33.352 1011.62 32.688ZM1017.19 32.7C1017.19 32.204 1017.09 31.772 1016.89 31.404C1016.69 31.036 1016.42 30.756 1016.07 30.564C1015.74 30.364 1015.37 30.264 1014.96 30.264C1014.55 30.264 1014.18 30.36 1013.84 30.552C1013.51 30.744 1013.24 31.024 1013.04 31.392C1012.84 31.76 1012.74 32.192 1012.74 32.688C1012.74 33.192 1012.84 33.632 1013.04 34.008C1013.24 34.376 1013.51 34.66 1013.84 34.86C1014.18 35.052 1014.55 35.148 1014.96 35.148C1015.37 35.148 1015.74 35.052 1016.07 34.86C1016.42 34.66 1016.69 34.376 1016.89 34.008C1017.09 33.632 1017.19 33.196 1017.19 32.7ZM1025.97 29.424V36H1024.88V35.028C1024.67 35.364 1024.38 35.628 1024 35.82C1023.63 36.004 1023.23 36.096 1022.78 36.096C1022.27 36.096 1021.81 35.992 1021.4 35.784C1020.99 35.568 1020.67 35.248 1020.43 34.824C1020.19 34.4 1020.08 33.884 1020.08 33.276V29.424H1021.16V33.132C1021.16 33.78 1021.32 34.28 1021.65 34.632C1021.98 34.976 1022.43 35.148 1022.99 35.148C1023.58 35.148 1024.04 34.968 1024.37 34.608C1024.71 34.248 1024.88 33.724 1024.88 33.036V29.424H1025.97ZM1028.91 30.492C1029.1 30.116 1029.37 29.824 1029.72 29.616C1030.08 29.408 1030.52 29.304 1031.03 29.304V30.432H1030.74C1029.52 30.432 1028.91 31.096 1028.91 32.424V36H1027.81V29.424H1028.91V30.492ZM1032.86 28.356C1032.65 28.356 1032.47 28.284 1032.33 28.14C1032.18 27.996 1032.11 27.82 1032.11 27.612C1032.11 27.404 1032.18 27.228 1032.33 27.084C1032.47 26.94 1032.65 26.868 1032.86 26.868C1033.06 26.868 1033.22 26.94 1033.36 27.084C1033.5 27.228 1033.58 27.404 1033.58 27.612C1033.58 27.82 1033.5 27.996 1033.36 28.14C1033.22 28.284 1033.06 28.356 1032.86 28.356ZM1033.38 29.424V36H1032.29V29.424H1033.38ZM1034.84 32.7C1034.84 32.02 1034.97 31.428 1035.24 30.924C1035.52 30.412 1035.89 30.016 1036.37 29.736C1036.86 29.456 1037.42 29.316 1038.04 29.316C1038.85 29.316 1039.51 29.512 1040.03 29.904C1040.56 30.296 1040.91 30.84 1041.08 31.536H1039.9C1039.79 31.136 1039.57 30.82 1039.24 30.588C1038.92 30.356 1038.52 30.24 1038.04 30.24C1037.42 30.24 1036.91 30.456 1036.53 30.888C1036.14 31.312 1035.95 31.916 1035.95 32.7C1035.95 33.492 1036.14 34.104 1036.53 34.536C1036.91 34.968 1037.42 35.184 1038.04 35.184C1038.52 35.184 1038.92 35.072 1039.24 34.848C1039.56 34.624 1039.78 34.304 1039.9 33.888H1041.08C1040.9 34.56 1040.55 35.1 1040.02 35.508C1039.49 35.908 1038.83 36.108 1038.04 36.108C1037.42 36.108 1036.86 35.968 1036.37 35.688C1035.89 35.408 1035.52 35.012 1035.24 34.5C1034.97 33.988 1034.84 33.388 1034.84 32.7ZM1048.53 32.46C1048.53 32.668 1048.52 32.888 1048.5 33.12H1043.24C1043.28 33.768 1043.5 34.276 1043.9 34.644C1044.31 35.004 1044.8 35.184 1045.38 35.184C1045.85 35.184 1046.24 35.076 1046.55 34.86C1046.87 34.636 1047.1 34.34 1047.23 33.972H1048.4C1048.23 34.604 1047.87 35.12 1047.35 35.52C1046.82 35.912 1046.16 36.108 1045.38 36.108C1044.75 36.108 1044.19 35.968 1043.7 35.688C1043.21 35.408 1042.83 35.012 1042.55 34.5C1042.27 33.98 1042.13 33.38 1042.13 32.7C1042.13 32.02 1042.26 31.424 1042.53 30.912C1042.81 30.4 1043.19 30.008 1043.67 29.736C1044.17 29.456 1044.74 29.316 1045.38 29.316C1046 29.316 1046.55 29.452 1047.03 29.724C1047.51 29.996 1047.88 30.372 1048.14 30.852C1048.4 31.324 1048.53 31.86 1048.53 32.46ZM1047.41 32.232C1047.41 31.816 1047.31 31.46 1047.13 31.164C1046.95 30.86 1046.69 30.632 1046.37 30.48C1046.06 30.32 1045.71 30.24 1045.33 30.24C1044.78 30.24 1044.31 30.416 1043.91 30.768C1043.53 31.12 1043.31 31.608 1043.25 32.232H1047.41ZM1049.66 35.124C1050.68 34.308 1051.47 33.64 1052.05 33.12C1052.63 32.592 1053.11 32.044 1053.5 31.476C1053.9 30.9 1054.1 30.336 1054.1 29.784C1054.1 29.264 1053.97 28.856 1053.72 28.56C1053.47 28.256 1053.07 28.104 1052.51 28.104C1051.96 28.104 1051.54 28.276 1051.23 28.62C1050.94 28.956 1050.78 29.408 1050.75 29.976H1049.7C1049.73 29.08 1050 28.388 1050.51 27.9C1051.03 27.412 1051.69 27.168 1052.49 27.168C1053.32 27.168 1053.97 27.396 1054.45 27.852C1054.94 28.308 1055.18 28.936 1055.18 29.736C1055.18 30.4 1054.98 31.048 1054.58 31.68C1054.19 32.304 1053.74 32.856 1053.24 33.336C1052.73 33.808 1052.09 34.36 1051.31 34.992H1055.43V35.904H1049.66V35.124ZM1056.57 35.124C1057.58 34.308 1058.38 33.64 1058.95 33.12C1059.53 32.592 1060.01 32.044 1060.41 31.476C1060.81 30.9 1061.01 30.336 1061.01 29.784C1061.01 29.264 1060.88 28.856 1060.62 28.56C1060.37 28.256 1059.97 28.104 1059.41 28.104C1058.87 28.104 1058.44 28.276 1058.14 28.62C1057.84 28.956 1057.68 29.408 1057.66 29.976H1056.6C1056.63 29.08 1056.91 28.388 1057.42 27.9C1057.93 27.412 1058.59 27.168 1059.4 27.168C1060.22 27.168 1060.87 27.396 1061.35 27.852C1061.84 28.308 1062.09 28.936 1062.09 29.736C1062.09 30.4 1061.89 31.048 1061.49 31.68C1061.09 32.304 1060.65 32.856 1060.14 33.336C1059.64 33.808 1058.99 34.36 1058.21 34.992H1062.34V35.904H1056.57V35.124Z" fill="#828282"/>
<path d="M999.926 13.446H1003.15V15H997.966V5.228H999.926V13.446ZM1003.89 11.094C1003.89 10.31 1004.04 9.61467 1004.35 9.008C1004.67 8.40133 1005.09 7.93467 1005.62 7.608C1006.17 7.28133 1006.77 7.118 1007.43 7.118C1008.01 7.118 1008.51 7.23467 1008.94 7.468C1009.38 7.70133 1009.73 7.99533 1009.99 8.35V7.244H1011.97V15H1009.99V13.866C1009.74 14.23 1009.39 14.5333 1008.94 14.776C1008.5 15.0093 1007.99 15.126 1007.42 15.126C1006.76 15.126 1006.17 14.958 1005.62 14.622C1005.09 14.286 1004.67 13.8147 1004.35 13.208C1004.04 12.592 1003.89 11.8873 1003.89 11.094ZM1009.99 11.122C1009.99 10.646 1009.9 10.24 1009.71 9.904C1009.53 9.55867 1009.27 9.29733 1008.96 9.12C1008.64 8.93333 1008.3 8.84 1007.93 8.84C1007.57 8.84 1007.23 8.92867 1006.93 9.106C1006.62 9.28333 1006.37 9.54467 1006.17 9.89C1005.98 10.226 1005.89 10.6273 1005.89 11.094C1005.89 11.5607 1005.98 11.9713 1006.17 12.326C1006.37 12.6713 1006.62 12.9373 1006.93 13.124C1007.24 13.3107 1007.58 13.404 1007.93 13.404C1008.3 13.404 1008.64 13.3153 1008.96 13.138C1009.27 12.9513 1009.53 12.69 1009.71 12.354C1009.9 12.0087 1009.99 11.598 1009.99 11.122ZM1021.2 7.244V15H1019.23V14.02C1018.98 14.356 1018.64 14.622 1018.23 14.818C1017.83 15.0047 1017.39 15.098 1016.92 15.098C1016.31 15.098 1015.77 14.972 1015.31 14.72C1014.84 14.4587 1014.47 14.0807 1014.2 13.586C1013.94 13.082 1013.81 12.4847 1013.81 11.794V7.244H1015.77V11.514C1015.77 12.13 1015.92 12.606 1016.23 12.942C1016.54 13.2687 1016.96 13.432 1017.49 13.432C1018.03 13.432 1018.46 13.2687 1018.77 12.942C1019.07 12.606 1019.23 12.13 1019.23 11.514V7.244H1021.2ZM1025.1 8.448C1025.35 8.03733 1025.67 7.71533 1026.08 7.482C1026.49 7.24867 1026.95 7.132 1027.48 7.132V9.19H1026.96C1026.34 9.19 1025.88 9.33467 1025.56 9.624C1025.25 9.91333 1025.1 10.4173 1025.1 11.136V15H1023.14V7.244H1025.1V8.448ZM1029.79 6.32C1029.44 6.32 1029.16 6.21267 1028.92 5.998C1028.7 5.774 1028.59 5.49867 1028.59 5.172C1028.59 4.84533 1028.7 4.57467 1028.92 4.36C1029.16 4.136 1029.44 4.024 1029.79 4.024C1030.14 4.024 1030.42 4.136 1030.64 4.36C1030.88 4.57467 1030.99 4.84533 1030.99 5.172C1030.99 5.49867 1030.88 5.774 1030.64 5.998C1030.42 6.21267 1030.14 6.32 1029.79 6.32ZM1030.76 7.244V15H1028.8V7.244H1030.76ZM1032.19 11.122C1032.19 10.3193 1032.35 9.61933 1032.68 9.022C1033.01 8.41533 1033.46 7.94867 1034.04 7.622C1034.62 7.286 1035.28 7.118 1036.02 7.118C1036.99 7.118 1037.78 7.36067 1038.4 7.846C1039.04 8.322 1039.46 8.994 1039.68 9.862H1037.56C1037.45 9.526 1037.26 9.26467 1036.99 9.078C1036.73 8.882 1036.4 8.784 1036.01 8.784C1035.45 8.784 1035.01 8.98933 1034.68 9.4C1034.35 9.80133 1034.19 10.3753 1034.19 11.122C1034.19 11.8593 1034.35 12.4333 1034.68 12.844C1035.01 13.2453 1035.45 13.446 1036.01 13.446C1036.8 13.446 1037.32 13.0913 1037.56 12.382H1039.68C1039.46 13.222 1039.04 13.8893 1038.4 14.384C1037.77 14.8787 1036.98 15.126 1036.02 15.126C1035.28 15.126 1034.62 14.9627 1034.04 14.636C1033.46 14.3 1033.01 13.8333 1032.68 13.236C1032.35 12.6293 1032.19 11.9247 1032.19 11.122ZM1048.32 10.954C1048.32 11.234 1048.31 11.486 1048.27 11.71H1042.6C1042.65 12.27 1042.84 12.7087 1043.19 13.026C1043.53 13.3433 1043.96 13.502 1044.46 13.502C1045.19 13.502 1045.71 13.1893 1046.01 12.564H1048.13C1047.9 13.3107 1047.48 13.9267 1046.84 14.412C1046.21 14.888 1045.43 15.126 1044.5 15.126C1043.76 15.126 1043.08 14.9627 1042.49 14.636C1041.9 14.3 1041.44 13.8287 1041.1 13.222C1040.77 12.6153 1040.61 11.9153 1040.61 11.122C1040.61 10.3193 1040.77 9.61467 1041.1 9.008C1041.43 8.40133 1041.88 7.93467 1042.47 7.608C1043.06 7.28133 1043.74 7.118 1044.5 7.118C1045.24 7.118 1045.9 7.27667 1046.48 7.594C1047.06 7.91133 1047.52 8.364 1047.83 8.952C1048.16 9.53067 1048.32 10.198 1048.32 10.954ZM1046.29 10.394C1046.29 9.89 1046.1 9.48867 1045.75 9.19C1045.39 8.882 1044.96 8.728 1044.45 8.728C1043.96 8.728 1043.55 8.87733 1043.21 9.176C1042.89 9.46533 1042.69 9.87133 1042.61 10.394H1046.29Z" fill="#1A1A1A"/>
<path d="M1086 23.91C1085.81 23.91 1085.62 23.84 1085.47 23.69L1081.94 20.16C1081.65 19.87 1081.65 19.39 1081.94 19.1C1082.23 18.81 1082.71 18.81 1083 19.1L1086 22.1L1089 19.1C1089.29 18.81 1089.77 18.81 1090.06 19.1C1090.35 19.39 1090.35 19.87 1090.06 20.16L1086.53 23.69C1086.38 23.84 1086.19 23.91 1086 23.91Z" fill="#828282"/>
<path fill-rule="evenodd" clip-rule="evenodd" d="M870 11.75C864.891 11.75 860.75 15.8914 860.75 21C860.75 26.1086 864.891 30.25 870 30.25C875.109 30.25 879.25 26.1086 879.25 21C879.25 15.8914 875.109 11.75 870 11.75ZM859.25 21C859.25 15.0629 864.063 10.25 870 10.25C875.937 10.25 880.75 15.0629 880.75 21C880.75 26.9371 875.937 31.75 870 31.75C864.063 31.75 859.25 26.9371 859.25 21Z" fill="#828282"/>
<path fill-rule="evenodd" clip-rule="evenodd" d="M869.908 16.75C869.419 16.75 868.969 16.9548 868.633 17.302C868.449 17.492 868.3 17.7235 868.201 17.984C868.055 18.3713 867.622 18.5662 867.234 18.4193C866.847 18.2724 866.652 17.8394 866.799 17.4521C866.97 17.0014 867.229 16.5955 867.555 16.2584C868.154 15.6403 868.985 15.25 869.908 15.25C871.79 15.25 873.25 16.8456 873.25 18.7307C873.25 20.3594 872.167 21.7632 870.658 22.1232V23C870.658 23.4142 870.322 23.75 869.908 23.75C869.494 23.75 869.158 23.4142 869.158 23V21.9613C869.158 21.2422 869.728 20.7842 870.255 20.6764C871.08 20.5076 871.75 19.7233 871.75 18.7307C871.75 17.5995 870.889 16.75 869.908 16.75Z" fill="#828282"/>
<path d="M870 27.25C870.552 27.25 871 26.8023 871 26.25C871 25.6977 870.552 25.25 870 25.25C869.448 25.25 869 25.6977 869 26.25C869 26.8023 869.448 27.25 870 27.25Z" fill="#828282"/>
<line x1="4.37114e-08" y1="72.5" x2="1098" y2="72.5001" stroke="#E4E4E4"/>
</svg>
